# Blender v2.82 (sub 7) OBJ File: 'Seat.blend'
# www.blender.org
mtllib Seat.mtl
o Seat_Cube.010
v 0.000000 0.000000 0.537199
v 0.000024 0.263855 0.537084
v -0.069276 0.347921 0.537084
v -0.393539 0.349532 0.537131
v -0.475515 0.273660 0.537131
v -0.475515 0.001186 0.537131
v 0.000000 0.000000 0.481434
v 0.000024 0.263855 0.481319
v -0.069276 0.347921 0.481319
v -0.393539 0.349532 0.481366
v -0.475515 0.273660 0.481366
v -0.475515 0.001186 0.481366
v -0.039659 0.000332 0.532494
v -0.039639 0.254122 0.532398
v -0.097275 0.324039 0.532398
v -0.366963 0.325379 0.532437
v -0.435142 0.262277 0.532437
v -0.435142 0.002221 0.532437
v -0.039659 0.000332 0.486115
v -0.039639 0.254122 0.486019
v -0.097275 0.324039 0.486019
v -0.366963 0.325379 0.486058
v -0.435142 0.262277 0.486058
v -0.435142 0.002221 0.486058
v 0.015566 0.323119 0.537084
v -0.009354 0.351343 0.537084
v 0.015566 0.323119 0.481319
v -0.009354 0.351343 0.481319
v 0.127162 0.613500 0.537084
v 0.101020 0.641723 0.537084
v 0.127162 0.613500 0.481319
v 0.101020 0.641723 0.481319
v 0.000000 0.000000 -0.956249
v 0.000024 0.263855 -0.956364
v -0.069276 0.347921 -0.956364
v -0.393539 0.349532 -0.956317
v -0.475515 0.273660 -0.956317
v -0.475515 0.001186 -0.956317
v 0.000000 0.000000 -1.012014
v 0.000024 0.263855 -1.012129
v -0.069276 0.347921 -1.012129
v -0.393539 0.349532 -1.012082
v -0.475515 0.273660 -1.012082
v -0.475515 0.001186 -1.012082
v -0.039659 0.000332 -0.960954
v -0.039639 0.254122 -0.961050
v -0.097275 0.324039 -0.961050
v -0.366963 0.325379 -0.961011
v -0.435142 0.262277 -0.961011
v -0.435142 0.002221 -0.961011
v -0.039659 0.000332 -1.007333
v -0.039639 0.254122 -1.007429
v -0.097275 0.324039 -1.007429
v -0.366963 0.325379 -1.007390
v -0.435142 0.262277 -1.007390
v -0.435142 0.002221 -1.007390
v 0.015566 0.323119 -0.956364
v -0.009354 0.351343 -0.956364
v 0.015566 0.323119 -1.012129
v -0.009354 0.351343 -1.012129
v 0.127162 0.613500 -0.956364
v 0.101020 0.641723 -0.956364
v 0.127162 0.613500 -1.012129
v 0.101020 0.641723 -1.012129
v -0.188451 0.339769 0.538495
v -0.188451 0.359769 0.538495
v -0.188451 0.339769 -1.061505
v -0.188451 0.359769 -1.061505
v -0.048451 0.339769 0.538495
v -0.048451 0.359769 0.538495
v -0.048451 0.339769 -1.061505
v -0.048451 0.359769 -1.061505
v -0.366856 0.339769 0.538495
v -0.366856 0.359769 0.538495
v -0.366856 0.339769 -1.061505
v -0.366856 0.359769 -1.061505
v -0.226856 0.339769 0.538495
v -0.226856 0.359769 0.538495
v -0.226856 0.339769 -1.061505
v -0.226856 0.359769 -1.061505
v -0.480941 0.311934 0.538495
v -0.487023 0.330987 0.538495
v -0.480941 0.311934 -1.061505
v -0.487023 0.330987 -1.061505
v -0.385678 0.342347 0.538495
v -0.391760 0.361400 0.538495
v -0.385678 0.342347 -1.061505
v -0.391760 0.361400 -1.061505
v -0.005954 0.354311 0.538495
v -0.024663 0.361380 0.538495
v -0.005954 0.354311 -1.061505
v -0.024663 0.361380 -1.061505
v 0.029386 0.447859 0.538495
v 0.010677 0.454927 0.538495
v 0.029386 0.447859 -1.061505
v 0.010677 0.454927 -1.061505
v 0.035231 0.469630 0.538495
v 0.016522 0.476698 0.538495
v 0.035231 0.469630 -1.061505
v 0.016522 0.476698 -1.061505
v 0.070571 0.563177 0.538495
v 0.051862 0.570245 0.538495
v 0.070571 0.563177 -1.061505
v 0.051862 0.570245 -1.061505
v 0.077789 0.578085 0.538495
v 0.059080 0.585153 0.538495
v 0.077789 0.578085 -1.061505
v 0.059080 0.585153 -1.061505
v 0.113130 0.671632 0.538495
v 0.094420 0.678700 0.538495
v 0.113130 0.671632 -1.061505
v 0.094420 0.678700 -1.061505
vt 0.000000 0.000000
vt 0.000000 0.000000
vt 0.000000 0.000000
vt 0.000000 0.000000
vt 0.000000 0.000000
vt 0.000000 0.000000
vt 0.000000 0.000000
vt 0.000000 0.000000
vt 0.000000 0.000000
vt 0.000000 0.000000
vt 0.000000 0.000000
vt 0.000000 0.000000
vt 0.000000 0.000000
vt 0.000000 0.000000
vt 0.000000 0.000000
vt 0.000000 0.000000
vt 0.000000 0.000000
vt 0.000000 0.000000
vt 0.000000 0.000000
vt 0.000000 0.000000
vt 0.000000 0.000000
vt 0.000000 0.000000
vt 0.000000 0.000000
vt 0.000000 0.000000
vt 0.000000 0.000000
vt 0.000000 0.000000
vt 0.000000 0.000000
vt 0.000000 0.000000
vt 0.000000 0.000000
vt 0.000000 0.000000
vt 0.000000 0.000000
vt 0.000000 0.000000
vt 0.000000 0.000000
vt 0.000000 0.000000
vt 0.000000 0.000000
vt 0.000000 0.000000
vt 0.000000 0.000000
vt 0.000000 0.000000
vt 0.000000 0.000000
vt 0.000000 0.000000
vt 0.000000 0.000000
vt 0.000000 0.000000
vt 0.000000 0.000000
vt 0.000000 0.000000
vt 0.000000 0.000000
vt 0.000000 0.000000
vt 0.000000 0.000000
vt 0.000000 0.000000
vt 0.000000 0.000000
vt 0.000000 0.000000
vt 0.000000 0.000000
vt 0.000000 0.000000
vt 0.000000 0.000000
vt 0.000000 0.000000
vt 0.000000 0.000000
vt 0.000000 0.000000
vt 0.000000 0.000000
vt 0.000000 0.000000
vt 0.000000 0.000000
vt 0.000000 0.000000
vt 0.000000 0.000000
vt 0.000000 0.000000
vt 0.000000 0.000000
vt 0.000000 0.000000
vt 0.375000 0.000000
vt 0.625000 0.000000
vt 0.625000 0.250000
vt 0.375000 0.250000
vt 0.625000 0.500000
vt 0.375000 0.500000
vt 0.625000 0.750000
vt 0.375000 0.750000
vt 0.625000 1.000000
vt 0.375000 1.000000
vt 0.125000 0.500000
vt 0.125000 0.750000
vt 0.875000 0.500000
vt 0.875000 0.750000
vt 0.375000 0.000000
vt 0.625000 0.000000
vt 0.625000 0.250000
vt 0.375000 0.250000
vt 0.625000 0.500000
vt 0.375000 0.500000
vt 0.625000 0.750000
vt 0.375000 0.750000
vt 0.625000 1.000000
vt 0.375000 1.000000
vt 0.125000 0.500000
vt 0.125000 0.750000
vt 0.875000 0.500000
vt 0.875000 0.750000
vt 0.375000 0.000000
vt 0.625000 0.000000
vt 0.625000 0.250000
vt 0.375000 0.250000
vt 0.625000 0.500000
vt 0.375000 0.500000
vt 0.625000 0.750000
vt 0.375000 0.750000
vt 0.625000 1.000000
vt 0.375000 1.000000
vt 0.125000 0.500000
vt 0.125000 0.750000
vt 0.875000 0.500000
vt 0.875000 0.750000
vt 0.375000 0.000000
vt 0.625000 0.000000
vt 0.625000 0.250000
vt 0.375000 0.250000
vt 0.625000 0.500000
vt 0.375000 0.500000
vt 0.625000 0.750000
vt 0.375000 0.750000
vt 0.625000 1.000000
vt 0.375000 1.000000
vt 0.125000 0.500000
vt 0.125000 0.750000
vt 0.875000 0.500000
vt 0.875000 0.750000
vt 0.375000 0.000000
vt 0.625000 0.000000
vt 0.625000 0.250000
vt 0.375000 0.250000
vt 0.625000 0.500000
vt 0.375000 0.500000
vt 0.625000 0.750000
vt 0.375000 0.750000
vt 0.625000 1.000000
vt 0.375000 1.000000
vt 0.125000 0.500000
vt 0.125000 0.750000
vt 0.875000 0.500000
vt 0.875000 0.750000
vt 0.375000 0.000000
vt 0.625000 0.000000
vt 0.625000 0.250000
vt 0.375000 0.250000
vt 0.625000 0.500000
vt 0.375000 0.500000
vt 0.625000 0.750000
vt 0.375000 0.750000
vt 0.625000 1.000000
vt 0.375000 1.000000
vt 0.125000 0.500000
vt 0.125000 0.750000
vt 0.875000 0.500000
vt 0.875000 0.750000
vn 0.0050 1.0000 0.0000
vn 1.0000 -0.0001 0.0000
vn -0.6793 0.7339 0.0000
vn -0.0570 0.9984 0.0000
vn -1.0000 0.0000 0.0000
vn -0.0050 -1.0000 0.0000
vn -1.0000 0.0001 0.0000
vn 0.6793 -0.7339 0.0000
vn -0.7716 -0.6361 0.0000
vn 1.0000 0.0000 0.0000
vn 0.1155 0.0000 0.9933
vn -0.0975 -0.0804 0.9920
vn 0.0883 -0.0954 -0.9915
vn 0.0256 -0.9997 0.0000
vn -0.1174 -0.0004 -0.9931
vn -0.0008 -0.1916 0.9815
vn 0.1154 0.0000 -0.9933
vn -0.0978 -0.0806 -0.9919
vn -0.0084 -1.0000 0.0000
vn 0.0883 -0.0955 0.9915
vn -0.1176 0.0004 0.9931
vn -0.0011 -0.1919 -0.9814
vn -0.9348 0.3553 0.0000
vn -0.0000 0.0000 1.0000
vn 0.9673 -0.2537 0.0000
vn 0.0000 0.0000 -1.0000
vn 0.7336 0.6795 0.0000
vn 0.9334 -0.3587 0.0000
vn 0.0884 -0.0955 0.9915
vn 0.0000 -1.0000 0.0000
vn 0.0000 1.0000 0.0000
vn -0.9526 -0.3041 0.0000
vn 0.9526 0.3041 0.0000
vn 0.3041 -0.9526 0.0000
vn -0.3041 0.9526 0.0000
vn -0.3534 -0.9355 0.0000
vn 0.3534 0.9355 0.0000
vn 0.9355 -0.3534 0.0000
vn -0.9355 0.3534 0.0000
usemtl Gray
s off
f 3/1/1 9/2/1 10/3/1 4/4/1
f 1/5/2 7/6/2 8/7/2 2/8/2
f 4/4/3 10/3/3 11/9/3 5/10/3
f 9/2/4 3/1/4 26/11/4 28/12/4
f 5/10/5 11/9/5 12/13/5 6/14/5
f 15/15/6 16/16/6 22/17/6 21/18/6
f 13/19/7 14/20/7 20/21/7 19/22/7
f 16/16/8 17/23/8 23/24/8 22/17/8
f 14/20/9 15/15/9 21/18/9 20/21/9
f 17/23/10 18/25/10 24/26/10 23/24/10
f 5/10/11 6/14/11 18/25/11 17/23/11
f 2/8/12 3/1/12 15/15/12 14/20/12
f 11/9/13 10/3/13 22/17/13 23/24/13
f 6/14/14 12/13/14 24/26/14 18/25/14
f 8/7/15 7/6/15 19/22/15 20/21/15
f 3/1/16 4/4/16 16/16/16 15/15/16
f 12/13/17 11/9/17 23/24/17 24/26/17
f 9/2/18 8/7/18 20/21/18 21/18/18
f 7/6/19 1/5/19 13/19/19 19/22/19
f 4/4/20 5/10/20 17/23/20 16/16/20
f 1/5/21 2/8/21 14/20/21 13/19/21
f 10/3/22 9/2/22 21/18/22 22/17/22
f 28/12/23 26/11/23 30/27/23 32/28/23
f 3/1/24 2/8/24 25/29/24 26/11/24
f 2/8/25 8/7/25 27/30/25 25/29/25
f 8/7/26 9/2/26 28/12/26 27/30/26
f 29/31/27 31/32/27 32/28/27 30/27/27
f 26/11/24 25/29/24 29/31/24 30/27/24
f 25/29/28 27/30/28 31/32/28 29/31/28
f 27/30/26 28/12/26 32/28/26 31/32/26
f 35/33/1 41/34/1 42/35/1 36/36/1
f 33/37/2 39/38/2 40/39/2 34/40/2
f 36/36/3 42/35/3 43/41/3 37/42/3
f 41/34/4 35/33/4 58/43/4 60/44/4
f 37/42/5 43/41/5 44/45/5 38/46/5
f 47/47/6 48/48/6 54/49/6 53/50/6
f 45/51/7 46/52/7 52/53/7 51/54/7
f 48/48/8 49/55/8 55/56/8 54/49/8
f 46/52/9 47/47/9 53/50/9 52/53/9
f 49/55/10 50/57/10 56/58/10 55/56/10
f 37/42/11 38/46/11 50/57/11 49/55/11
f 34/40/12 35/33/12 47/47/12 46/52/12
f 43/41/13 42/35/13 54/49/13 55/56/13
f 38/46/14 44/45/14 56/58/14 50/57/14
f 40/39/15 39/38/15 51/54/15 52/53/15
f 35/33/16 36/36/16 48/48/16 47/47/16
f 44/45/17 43/41/17 55/56/17 56/58/17
f 41/34/18 40/39/18 52/53/18 53/50/18
f 39/38/19 33/37/19 45/51/19 51/54/19
f 36/36/29 37/42/29 49/55/29 48/48/29
f 33/37/21 34/40/21 46/52/21 45/51/21
f 42/35/22 41/34/22 53/50/22 54/49/22
f 60/44/23 58/43/23 62/59/23 64/60/23
f 35/33/24 34/40/24 57/61/24 58/43/24
f 34/40/25 40/39/25 59/62/25 57/61/25
f 40/39/26 41/34/26 60/44/26 59/62/26
f 61/63/27 63/64/27 64/60/27 62/59/27
f 58/43/24 57/61/24 61/63/24 62/59/24
f 57/61/28 59/62/28 63/64/28 61/63/28
f 59/62/26 60/44/26 64/60/26 63/64/26
usemtl Wood
f 65/65/5 66/66/5 68/67/5 67/68/5
f 67/68/26 68/67/26 72/69/26 71/70/26
f 71/70/10 72/69/10 70/71/10 69/72/10
f 69/72/24 70/71/24 66/73/24 65/74/24
f 67/75/30 71/70/30 69/72/30 65/76/30
f 72/69/31 68/77/31 66/78/31 70/71/31
f 73/79/5 74/80/5 76/81/5 75/82/5
f 75/82/26 76/81/26 80/83/26 79/84/26
f 79/84/10 80/83/10 78/85/10 77/86/10
f 77/86/24 78/85/24 74/87/24 73/88/24
f 75/89/30 79/84/30 77/86/30 73/90/30
f 80/83/31 76/91/31 74/92/31 78/85/31
f 81/93/32 82/94/32 84/95/32 83/96/32
f 83/96/26 84/95/26 88/97/26 87/98/26
f 87/98/33 88/97/33 86/99/33 85/100/33
f 85/100/24 86/99/24 82/101/24 81/102/24
f 83/103/34 87/98/34 85/100/34 81/104/34
f 88/97/35 84/105/35 82/106/35 86/99/35
f 89/107/36 90/108/36 92/109/36 91/110/36
f 91/110/26 92/109/26 96/111/26 95/112/26
f 95/112/37 96/111/37 94/113/37 93/114/37
f 93/114/24 94/113/24 90/115/24 89/116/24
f 91/117/38 95/112/38 93/114/38 89/118/38
f 96/111/39 92/119/39 90/120/39 94/113/39
f 97/121/36 98/122/36 100/123/36 99/124/36
f 99/124/26 100/123/26 104/125/26 103/126/26
f 103/126/37 104/125/37 102/127/37 101/128/37
f 101/128/24 102/127/24 98/129/24 97/130/24
f 99/131/38 103/126/38 101/128/38 97/132/38
f 104/125/39 100/133/39 98/134/39 102/127/39
f 105/135/36 106/136/36 108/137/36 107/138/36
f 107/138/26 108/137/26 112/139/26 111/140/26
f 111/140/37 112/139/37 110/141/37 109/142/37
f 109/142/24 110/141/24 106/143/24 105/144/24
f 107/145/38 111/140/38 109/142/38 105/146/38
f 112/139/39 108/147/39 106/148/39 110/141/39
