# Blender v2.82 (sub 7) OBJ File: 'ArrowRight.blend'
# www.blender.org
mtllib ArrowRight.mtl
o Cube_Cube.001
v -0.400000 -0.940041 -0.344706
v -0.400000 0.900968 0.436756
v -0.400000 -0.900968 -0.436756
v -0.400000 0.940041 0.344706
v 0.400000 -0.940041 -0.344706
v 0.400000 0.900968 0.436756
v 0.400000 -0.900968 -0.436756
v 0.400000 0.940041 0.344706
v -0.400000 -0.900968 1.303018
v -0.400000 0.940041 0.521556
v -0.400000 -0.940041 1.210968
v -0.400000 0.900968 0.429506
v 0.400000 -0.900968 1.303018
v 0.400000 0.940041 0.521556
v 0.400000 -0.940041 1.210968
v 0.400000 0.900968 0.429506
v -0.400000 0.283493 0.174654
v -0.400000 0.322567 0.082603
v 0.400000 0.322567 0.082603
v 0.400000 0.283493 0.174654
v -0.400000 -0.289201 -0.177077
v 0.400000 -0.289201 -0.177077
v 0.400000 -0.328274 -0.085026
v -0.400000 -0.328274 -0.085026
v -0.400000 0.193135 0.136299
v -0.400000 0.232209 0.044249
v 0.400000 0.232209 0.044249
v 0.400000 0.193135 0.136299
v 0.275184 -0.900968 -0.436756
v 0.275184 0.940041 0.344706
v 0.275184 -0.940041 -0.344706
v 0.275184 0.900968 0.436756
v 0.275184 0.283493 0.174654
v 0.239191 0.351751 0.104235
v 0.275184 -0.289201 -0.177077
v 0.275184 -0.328274 -0.085026
v 0.239191 0.207322 0.032265
v 0.275184 0.193135 0.136299
v -0.055546 -0.900968 -0.436756
v -0.055546 0.900968 0.436756
v -0.055546 0.283493 0.174654
v -0.055546 -0.328274 -0.085026
v -0.055546 0.193135 0.136299
v -0.055546 0.940041 0.344706
v -0.055546 -0.940041 -0.344706
v -0.108790 0.351751 0.104235
v -0.055546 -0.289201 -0.177077
v -0.108790 0.207322 0.032265
v -0.230156 -0.900968 -0.436756
v -0.230156 0.900968 0.436756
v -0.230156 0.283493 0.174654
v -0.230156 -0.328274 -0.085026
v -0.230156 0.193135 0.136299
v -0.230156 0.940041 0.344706
v -0.230156 -0.940041 -0.344706
v -0.109047 0.419797 0.135709
v -0.230156 -0.289201 -0.177077
v -0.115647 0.137636 0.002421
v -0.400000 0.166266 0.016258
v 0.400000 0.166266 0.016258
v 0.400000 0.127192 0.108308
v -0.400000 0.127192 0.108308
v 0.275184 0.127192 0.108308
v 0.275184 0.144356 0.002781
v -0.055546 0.127192 0.108308
v -0.230156 0.166266 0.016258
v -0.230156 0.127192 0.108308
v -0.400000 0.353725 0.204465
v -0.400000 0.392798 0.112415
v 0.400000 0.392798 0.112415
v 0.400000 0.353725 0.204465
v 0.275184 0.353725 0.204465
v 0.275184 0.417800 0.128985
v -0.055546 0.353725 0.204465
v -0.230156 0.392798 0.112415
v -0.230156 0.353725 0.204465
v -0.400000 0.238314 0.155476
v -0.400000 0.277388 0.063426
v 0.400000 0.277388 0.063426
v 0.400000 0.238314 0.155476
v 0.239191 0.277910 0.066623
v 0.275184 0.238314 0.155476
v -0.108790 0.277910 0.066623
v -0.055546 0.238314 0.155476
v -0.292508 0.277910 0.066623
v -0.230156 0.238314 0.155476
v -0.400000 0.371074 0.763068
v -0.400000 0.332001 0.671018
v 0.400000 0.332001 0.671018
v 0.400000 0.371074 0.763068
v -0.400000 0.260467 0.701382
v 0.400000 0.260467 0.701382
v 0.400000 0.299540 0.793433
v -0.400000 0.299540 0.793433
v -0.400000 0.209194 0.723146
v 0.400000 0.209194 0.723146
v 0.400000 0.248267 0.815197
v -0.400000 0.248267 0.815197
v -0.400000 0.162918 0.742789
v 0.400000 0.162918 0.742789
v 0.400000 0.201991 0.834840
v -0.400000 0.201991 0.834840
v -0.400000 0.097875 0.770398
v 0.400000 0.097875 0.770398
v 0.400000 0.136948 0.862449
v -0.400000 0.136948 0.862449
v -0.204621 -0.940041 1.210968
v -0.204621 0.900968 0.429506
v -0.204621 -0.900968 1.303018
v -0.204621 0.940041 0.521556
v -0.238838 0.397153 0.763068
v -0.204621 0.332001 0.671018
v -0.204621 0.260467 0.701382
v -0.150300 0.399449 0.751091
v -0.342841 0.245621 0.816387
v -0.204621 0.209194 0.723146
v -0.204621 0.162918 0.742789
v -0.150300 0.106182 0.875575
v -0.204621 0.098934 0.874656
v -0.204621 0.097875 0.770398
v -0.050908 0.900968 0.429506
v -0.050908 -0.900968 1.303018
v -0.050908 0.332001 0.671018
v -0.050908 0.260467 0.701382
v -0.050908 0.209194 0.723146
v -0.050908 0.162918 0.742789
v -0.050908 0.097875 0.770398
v -0.050908 -0.940041 1.210968
v -0.050908 0.940041 0.521556
v -0.150300 0.335065 0.770133
v -0.150300 0.258705 0.808458
v -0.150300 0.182305 0.835389
v 0.271665 0.900968 0.429506
v 0.271665 -0.900968 1.303018
v 0.271665 0.332001 0.671018
v 0.271665 0.260467 0.701382
v 0.271665 0.209194 0.723146
v 0.271665 0.162918 0.742789
v 0.271665 0.097875 0.770398
v 0.271665 -0.940041 1.210968
v 0.271665 0.940041 0.521556
v 0.271665 0.371074 0.763068
v 0.253754 0.335065 0.770133
v 0.253754 0.258705 0.808458
v 0.253754 0.182305 0.835389
v 0.271665 0.136948 0.862449
vt 0.550687 0.000000
vt 0.625000 0.000000
vt 0.625000 0.250000
vt 0.550687 0.250000
vt 0.550687 0.460995
vt 0.625000 0.460995
vt 0.625000 0.500000
vt 0.550687 0.500000
vt 0.625000 0.750000
vt 0.550687 0.750000
vt 0.550687 0.946924
vt 0.625000 0.946924
vt 0.625000 1.000000
vt 0.550687 1.000000
vt 0.335995 0.500000
vt 0.375000 0.500000
vt 0.375000 0.750000
vt 0.335995 0.750000
vt 0.821924 0.500000
vt 0.875000 0.500000
vt 0.875000 0.750000
vt 0.821924 0.750000
vt 0.547737 0.000000
vt 0.625000 0.000000
vt 0.625000 0.250000
vt 0.547737 0.250000
vt 0.547737 0.459895
vt 0.625000 0.459895
vt 0.625000 0.500000
vt 0.547737 0.500000
vt 0.625000 0.750000
vt 0.547737 0.750000
vt 0.547737 0.938944
vt 0.625000 0.938944
vt 0.625000 1.000000
vt 0.547737 1.000000
vt 0.334895 0.500000
vt 0.375000 0.500000
vt 0.375000 0.750000
vt 0.334895 0.750000
vt 0.813944 0.500000
vt 0.875000 0.500000
vt 0.875000 0.750000
vt 0.813944 0.750000
vt 0.535015 0.946924
vt 0.541150 0.946924
vt 0.541150 1.000000
vt 0.535015 1.000000
vt 0.535015 0.500000
vt 0.541150 0.500000
vt 0.541150 0.750000
vt 0.535015 0.750000
vt 0.535015 0.460995
vt 0.541150 0.460995
vt 0.535015 0.000000
vt 0.541150 0.000000
vt 0.541150 0.250000
vt 0.535015 0.250000
vt 0.375000 0.000000
vt 0.458075 0.000000
vt 0.458075 0.250000
vt 0.375000 0.250000
vt 0.375000 0.460995
vt 0.458075 0.460995
vt 0.458075 0.500000
vt 0.458075 0.750000
vt 0.375000 0.946924
vt 0.458075 0.946924
vt 0.458075 1.000000
vt 0.375000 1.000000
vt 0.519925 0.000000
vt 0.528880 0.000000
vt 0.528880 0.250000
vt 0.519925 0.250000
vt 0.519925 0.460995
vt 0.528880 0.460995
vt 0.528880 0.500000
vt 0.519925 0.500000
vt 0.528880 0.750000
vt 0.519925 0.750000
vt 0.519925 0.946924
vt 0.528880 0.946924
vt 0.528880 1.000000
vt 0.519925 1.000000
vt 0.528880 0.789005
vt 0.519925 0.789005
vt 0.519925 0.357642
vt 0.528880 0.357642
vt 0.458075 0.789005
vt 0.375000 0.789005
vt 0.375000 0.357642
vt 0.458075 0.357642
vt 0.541150 0.789005
vt 0.535015 0.789005
vt 0.664005 0.500000
vt 0.664005 0.750000
vt 0.232642 0.500000
vt 0.232642 0.750000
vt 0.625000 0.789005
vt 0.550687 0.789005
vt 0.550687 0.357642
vt 0.625000 0.357642
vt 0.550687 0.303076
vt 0.625000 0.303076
vt 0.178076 0.500000
vt 0.178076 0.750000
vt 0.375000 0.303076
vt 0.458075 0.303076
vt 0.528880 0.892358
vt 0.519925 0.892358
vt 0.458075 0.892358
vt 0.375000 0.892358
vt 0.541150 0.892358
vt 0.535015 0.892358
vt 0.767358 0.500000
vt 0.767358 0.750000
vt 0.625000 0.892358
vt 0.550687 0.892358
vt 0.528880 0.303076
vt 0.519925 0.303076
vt 0.541150 0.303076
vt 0.535015 0.303076
vt 0.125000 0.500000
vt 0.125000 0.750000
vt 0.541150 0.357642
vt 0.538023 0.938944
vt 0.538023 1.000000
vt 0.538023 0.500000
vt 0.538023 0.750000
vt 0.538023 0.459895
vt 0.538023 0.000000
vt 0.538023 0.250000
vt 0.531061 0.000000
vt 0.531060 0.250000
vt 0.531060 0.459895
vt 0.531060 0.500000
vt 0.531061 0.750000
vt 0.531061 0.938944
vt 0.531061 1.000000
vt 0.524776 0.938944
vt 0.524776 1.000000
vt 0.524776 0.500000
vt 0.524776 0.750000
vt 0.524776 0.459895
vt 0.524776 0.000000
vt 0.524776 0.250000
vt 0.515944 0.000000
vt 0.515944 0.250000
vt 0.515944 0.459895
vt 0.515944 0.500000
vt 0.515944 0.750000
vt 0.515944 0.938944
vt 0.515944 1.000000
vt 0.375000 0.938944
vt 0.375000 1.000000
vt 0.375000 0.459895
vt 0.375000 0.000000
vt 0.375000 0.250000
vt 0.515944 0.311056
vt 0.375000 0.311056
vt 0.375000 0.890909
vt 0.515944 0.890909
vt 0.524776 0.311056
vt 0.531060 0.311056
vt 0.538023 0.311056
vt 0.547737 0.311056
vt 0.765909 0.500000
vt 0.765909 0.750000
vt 0.125000 0.500000
vt 0.186056 0.500000
vt 0.186056 0.750000
vt 0.125000 0.750000
vt 0.547737 0.890909
vt 0.625000 0.890909
vt 0.625000 0.311056
vt 0.547737 0.790105
vt 0.625000 0.790105
vt 0.665105 0.500000
vt 0.665105 0.750000
vt 0.538023 0.790105
vt 0.538023 0.890909
vt 0.515944 0.790105
vt 0.524776 0.790105
vt 0.524776 0.890909
vt 0.375000 0.790105
vt 0.515944 0.359091
vt 0.375000 0.359091
vt 0.524776 0.359091
vt 0.531060 0.359091
vt 0.538023 0.359091
vt 0.547737 0.359091
vt 0.234091 0.500000
vt 0.234091 0.750000
vt 0.625000 0.359091
vt 0.531061 0.790105
vt 0.535015 0.357642
vt 0.531061 0.890909
vn -1.0000 -0.0000 0.0000
vn -0.0225 0.3863 -0.9221
vn 1.0000 0.0000 0.0000
vn 0.0000 -0.3907 0.9205
vn 0.0000 -0.9205 -0.3907
vn 0.0000 0.9205 0.3907
vn 0.0000 -0.3907 -0.9205
vn -0.0292 0.3990 0.9165
vn 0.0000 -0.9205 0.3907
vn 0.0000 0.9205 -0.3907
vn -0.0299 0.4304 -0.9021
vn 0.0000 0.3907 -0.9205
vn 0.0140 0.4104 -0.9118
vn -0.0033 0.4077 -0.9131
vn -0.0077 0.3776 -0.9259
vn 0.0381 0.3801 -0.9242
vn -0.0074 0.3745 -0.9272
vn 0.0308 0.4017 -0.9153
vn -0.0056 0.3889 -0.9213
vn -0.0031 0.3852 -0.9228
vn 0.0158 0.3870 -0.9219
vn 0.0502 0.2849 -0.9572
vn -0.0074 0.3883 -0.9215
vn -0.0508 0.3827 -0.9225
vn 0.0110 0.4187 -0.9080
vn -0.0070 0.4197 -0.9076
vn 0.0149 0.2744 0.9615
vn -0.0006 0.3912 0.9203
vn -0.0006 0.3902 0.9207
vn -0.0061 0.3504 0.9366
vn 0.0094 0.3922 0.9198
vn -0.0177 0.3914 0.9200
vn 0.0417 0.3940 0.9182
vn 0.0001 0.3908 0.9205
vn -0.0054 0.2526 0.9676
vn -0.0041 0.4838 0.8751
vn 0.0001 0.3907 0.9205
vn 0.0000 0.3907 0.9205
vn -0.0297 0.4397 0.8977
vn -0.0310 0.3548 0.9344
vn -0.0260 0.4258 0.9044
vn -0.0367 0.3339 0.9419
vn 0.0000 0.4539 -0.8911
vn 0.0081 0.4378 -0.8990
vn -0.0100 0.4166 -0.9091
vn 0.0000 0.4376 -0.8991
vn 0.0421 0.4024 0.9145
vn 0.0471 0.3770 0.9250
vn 0.0000 0.4486 0.8937
vn 0.0000 0.3325 0.9431
usemtl Orange
s off
f 68/1/1 2/2/1 4/3/1 69/4/1
f 73/5/2 30/6/2 8/7/2 70/8/2
f 70/8/3 8/7/3 6/9/3 71/10/3
f 76/11/4 50/12/4 2/13/4 68/14/4
f 29/15/5 7/16/5 5/17/5 31/18/5
f 54/19/6 4/20/6 2/21/6 50/22/6
f 87/23/1 10/24/1 12/25/1 88/26/1
f 135/27/7 133/28/7 16/29/7 89/30/7
f 89/30/3 16/29/3 14/31/3 90/32/3
f 111/33/8 110/34/8 10/35/8 87/36/8
f 140/37/9 15/38/9 13/39/9 134/40/9
f 108/41/10 12/42/10 10/43/10 110/44/10
f 86/45/4 51/46/4 17/47/4 77/48/4
f 79/49/3 19/50/3 20/51/3 80/52/3
f 81/53/11 34/54/11 19/50/11 79/49/11
f 77/55/1 17/56/1 18/57/1 78/58/1
f 1/59/1 24/60/1 21/61/1 3/62/1
f 29/63/12 35/64/12 22/65/12 7/16/12
f 7/16/3 22/65/3 23/66/3 5/17/3
f 55/67/4 52/68/4 24/69/4 1/70/4
f 62/71/1 25/72/1 26/73/1 59/74/1
f 64/75/13 37/76/13 27/77/13 60/78/13
f 60/78/3 27/77/3 28/79/3 61/80/3
f 67/81/4 53/82/4 25/83/4 62/84/4
f 61/80/4 28/79/4 38/85/4 63/86/4
f 58/87/14 48/88/14 37/76/14 64/75/14
f 5/17/4 23/66/4 36/89/4 31/90/4
f 39/91/12 47/92/12 35/64/12 29/63/12
f 80/52/4 20/51/4 33/93/4 82/94/4
f 8/7/6 30/95/6 32/96/6 6/9/6
f 39/97/5 29/15/5 31/18/5 45/98/5
f 71/10/4 6/9/4 32/99/4 72/100/4
f 56/101/15 44/102/15 30/6/15 73/5/15
f 75/103/16 54/104/16 44/102/16 56/101/16
f 49/105/5 39/97/5 45/98/5 55/106/5
f 49/107/12 57/108/12 47/92/12 39/91/12
f 63/86/4 38/85/4 43/109/4 65/110/4
f 31/90/4 36/89/4 42/111/4 45/112/4
f 82/94/4 33/93/4 41/113/4 84/114/4
f 30/95/6 44/115/6 40/116/6 32/96/6
f 72/100/4 32/99/4 40/117/4 74/118/4
f 59/74/17 26/73/17 58/119/17 66/120/17
f 3/62/12 21/61/12 57/108/12 49/107/12
f 78/58/18 18/57/18 56/121/18 85/122/18
f 3/123/5 49/105/5 55/106/5 1/124/5
f 69/4/12 4/3/12 54/104/12 75/103/12
f 65/110/4 43/109/4 53/82/4 67/81/4
f 45/112/4 42/111/4 52/68/4 55/67/4
f 84/114/4 41/113/4 51/46/4 86/45/4
f 44/115/6 54/19/6 50/22/6 40/116/6
f 74/118/4 40/117/4 50/12/4 76/11/4
f 42/111/4 65/110/4 67/81/4 52/68/4
f 21/61/12 59/74/12 66/120/12 57/108/12
f 36/89/4 63/86/4 65/110/4 42/111/4
f 57/108/19 66/120/19 58/87/19 47/92/19
f 47/92/20 58/87/20 64/75/20 35/64/20
f 23/66/4 61/80/4 63/86/4 36/89/4
f 52/68/4 67/81/4 62/84/4 24/69/4
f 22/65/3 60/78/3 61/80/3 23/66/3
f 35/64/21 64/75/21 60/78/21 22/65/21
f 24/60/1 62/71/1 59/74/1 21/61/1
f 41/113/4 74/118/4 76/11/4 51/46/4
f 18/57/22 69/4/22 75/103/22 56/121/22
f 33/93/4 72/100/4 74/118/4 41/113/4
f 46/125/23 56/101/23 73/5/23 34/54/23
f 20/51/4 71/10/4 72/100/4 33/93/4
f 51/46/4 76/11/4 68/14/4 17/47/4
f 19/50/3 70/8/3 71/10/3 20/51/3
f 34/54/24 73/5/24 70/8/24 19/50/24
f 17/56/1 68/1/1 69/4/1 18/57/1
f 43/109/4 84/114/4 86/45/4 53/82/4
f 26/73/25 78/58/25 85/122/25 58/119/25
f 38/85/4 82/94/4 84/114/4 43/109/4
f 28/79/4 80/52/4 82/94/4 38/85/4
f 25/72/1 77/55/1 78/58/1 26/73/1
f 37/76/26 81/53/26 79/49/26 27/77/26
f 27/77/3 79/49/3 80/52/3 28/79/3
f 53/82/4 86/45/4 77/48/4 25/83/4
f 114/126/27 111/33/27 87/36/27 94/127/27
f 92/128/3 89/30/3 90/32/3 93/129/3
f 136/130/7 135/27/7 89/30/7 92/128/7
f 94/131/1 87/23/1 88/26/1 91/132/1
f 98/133/1 94/131/1 91/132/1 95/134/1
f 137/135/7 136/130/7 92/128/7 96/136/7
f 96/136/3 92/128/3 93/129/3 97/137/3
f 115/138/28 114/126/28 94/127/28 98/139/28
f 118/140/29 115/138/29 98/139/29 102/141/29
f 100/142/3 96/136/3 97/137/3 101/143/3
f 138/144/7 137/135/7 96/136/7 100/142/7
f 102/145/1 98/133/1 95/134/1 99/146/1
f 106/147/1 102/145/1 99/146/1 103/148/1
f 139/149/7 138/144/7 100/142/7 104/150/7
f 104/150/3 100/142/3 101/143/3 105/151/3
f 119/152/30 118/140/30 102/141/30 106/153/30
f 109/154/31 119/152/31 106/153/31 9/155/31
f 15/38/3 104/150/3 105/151/3 13/39/3
f 140/156/7 139/149/7 104/150/7 15/38/7
f 9/157/1 106/147/1 103/148/1 11/158/1
f 11/158/7 103/148/7 120/159/7 107/160/7
f 122/161/32 118/162/32 119/152/32 109/154/32
f 103/148/7 99/146/7 117/163/7 120/159/7
f 99/146/7 95/134/7 116/164/7 117/163/7
f 95/134/7 91/132/7 113/165/7 116/164/7
f 91/132/7 88/26/7 112/166/7 113/165/7
f 121/167/10 108/41/10 110/44/10 129/168/10
f 11/169/9 107/170/9 109/171/9 9/172/9
f 114/173/33 129/174/33 110/34/33 111/33/33
f 88/26/7 12/25/7 108/175/7 112/166/7
f 142/176/34 141/177/34 129/174/34 114/173/34
f 133/178/10 121/167/10 129/168/10 141/179/10
f 143/180/35 142/176/35 114/173/35 130/181/35
f 146/182/36 145/183/36 132/184/36 118/162/36
f 134/185/37 146/182/37 118/162/37 122/161/37
f 107/160/7 120/159/7 127/186/7 128/187/7
f 120/159/7 117/163/7 126/188/7 127/186/7
f 117/163/7 116/164/7 125/189/7 126/188/7
f 116/164/7 113/165/7 124/190/7 125/189/7
f 113/165/7 112/166/7 123/191/7 124/190/7
f 107/170/9 128/192/9 122/193/9 109/171/9
f 112/166/7 108/175/7 121/194/7 123/191/7
f 13/39/38 105/151/38 146/182/38 134/185/38
f 105/151/39 101/143/39 145/183/39 146/182/39
f 101/143/40 97/137/40 144/195/40 145/183/40
f 97/137/41 93/129/41 143/180/41 144/195/41
f 93/129/42 90/32/42 142/176/42 143/180/42
f 16/29/10 133/178/10 141/179/10 14/31/10
f 90/32/38 14/31/38 141/177/38 142/176/38
f 128/187/7 127/186/7 139/149/7 140/156/7
f 127/186/7 126/188/7 138/144/7 139/149/7
f 126/188/7 125/189/7 137/135/7 138/144/7
f 125/189/7 124/190/7 136/130/7 137/135/7
f 124/190/7 123/191/7 135/27/7 136/130/7
f 128/192/9 140/37/9 134/40/9 122/193/9
f 123/191/7 121/194/7 133/28/7 135/27/7
usemtl Black
f 83/196/43 46/125/43 34/54/43 81/53/43
f 85/122/44 56/121/44 46/125/44 83/196/44
f 58/119/45 85/122/45 83/196/45 48/88/45
f 48/88/46 83/196/46 81/53/46 37/76/46
f 132/184/47 131/197/47 115/138/47 118/140/47
f 131/197/48 130/181/48 114/126/48 115/138/48
f 144/195/49 143/180/49 130/181/49 131/197/49
f 145/183/50 144/195/50 131/197/50 132/184/50
