# Blender v2.82 (sub 7) OBJ File: 'Football.blend'
# www.blender.org
mtllib Football.mtl
o Icosphere
v -0.082334 -0.245257 -0.253403
v 0.001266 0.183327 0.312302
v -0.296625 0.183327 0.097711
v -0.184593 0.183327 -0.251912
v 0.182541 0.183327 -0.253403
v 0.297408 0.183327 0.095301
v 0.030965 0.347997 -0.095301
v -0.030965 -0.347997 0.095301
v -0.001266 -0.183328 0.312302
v 0.296625 -0.183327 0.097711
v 0.146618 -0.335177 0.000000
v -0.184005 -0.297728 0.000000
v -0.297409 -0.183327 0.095301
v -0.240866 -0.184008 -0.174999
v 0.184593 -0.183327 -0.251912
v 0.365361 0.018756 -0.000000
v 0.000000 0.000000 0.350000
v 0.205725 0.000000 0.283156
v -0.332870 0.000000 0.108154
v -0.205725 0.000000 0.283156
v -0.205725 0.000000 -0.283156
v -0.332870 0.000000 -0.108154
v 0.205725 0.000000 -0.283156
v 0.000000 0.000000 -0.350000
v 0.056859 0.297729 0.174998
v 0.184005 0.297728 0.000000
v -0.146618 0.335177 -0.000000
vt 0.454545 0.000000
vt 0.386671 0.117562
vt 0.500000 0.078731
vt 0.681202 0.157461
vt 0.636363 0.236191
vt 0.772726 0.236191
vt 0.863020 0.157461
vt 0.863635 0.236191
vt 0.954545 0.236191
vt 0.340601 0.117562
vt 0.318182 0.236191
vt 0.409090 0.236191
vt 0.499383 0.157461
vt 0.500000 0.236191
vt 1.000000 0.314921
vt 0.864252 0.314921
vt 0.954545 0.393651
vt 0.500616 0.314921
vt 0.318798 0.314921
vt 0.386671 0.432483
vt 0.682434 0.314921
vt 0.590909 0.393651
vt 0.318182 0.393651
vt 0.863635 0.393651
vt 0.772726 0.393651
vt 0.681818 0.393651
vt 0.727272 0.472382
vt 0.227273 0.236191
vt 0.136979 0.314921
vt 0.136363 0.236191
vt 0.272727 0.157461
vt 0.135747 0.157461
vt 0.045454 0.236191
vt 0.227273 0.078731
vt 0.136363 0.078731
vt 0.067874 0.039899
vt 0.000000 0.157461
vt 0.636363 0.078731
vt 0.772726 0.078731
vt 0.272727 0.000000
vt 0.181818 0.393651
vt 0.522419 0.432483
vt 0.909090 0.472382
vt 0.841216 0.039899
vn -0.0764 -0.9594 -0.2714
vn 0.8712 -0.0608 0.4871
vn -0.3034 -0.1899 0.9337
vn -0.2983 -0.2614 -0.9180
vn 0.8619 -0.1801 -0.4740
vn -0.3933 0.7398 0.5459
vn -0.0029 0.6912 -0.7227
vn 0.7851 0.5628 -0.2586
vn -0.3057 0.8351 -0.4573
vn -0.3114 0.7883 0.5307
vn 0.2178 0.9631 0.1582
vn 0.8503 0.1873 -0.4918
vn -0.3031 0.1940 -0.9330
vn -0.8411 0.4689 -0.2695
vn -0.9810 0.1940 0.0000
vn -0.3031 0.1939 0.9330
vn 0.5220 0.4689 0.7124
vn 0.3034 0.1899 -0.9337
vn 0.3031 -0.1940 -0.9330
vn -0.7947 -0.1876 -0.5773
vn -0.9041 -0.3837 -0.1882
vn -0.7943 0.1899 0.5771
vn 0.3031 -0.1939 0.9330
vn -0.4857 -0.7966 -0.3598
vn -0.4889 -0.7910 0.3678
vn -0.4272 -0.6912 0.5829
vn 0.7639 -0.5971 -0.2448
vn 0.3933 -0.7398 0.5459
vn -0.1523 -0.9539 -0.2586
vn -0.5212 -0.3563 -0.7755
vn -0.9818 -0.1899 0.0000
vn 0.4886 0.5628 0.6667
vn -0.7639 0.5971 -0.2448
vn 0.4865 0.7952 -0.3618
vn 0.0258 0.9833 0.1804
vn 0.4953 0.7907 0.3598
vn 0.8240 0.4974 -0.2714
vn -0.0036 0.4689 -0.8832
vn -0.5162 0.4689 0.7166
vn 0.8668 0.0721 0.4934
vn 0.0962 -0.3925 -0.9147
vn -0.7943 0.1899 -0.5771
vn -0.7937 -0.1939 0.5766
vn -0.5220 -0.4689 0.7124
vn 0.3034 0.1899 0.9337
vn 0.5162 -0.4689 0.7166
vn 0.8614 -0.4264 -0.2760
vn 0.2004 -0.8521 -0.4834
vn -0.7640 -0.6255 -0.1582
vn 0.3439 -0.7701 0.5373
usemtl White
s off
f 8/1/1 1/2/1 11/3/1
f 10/4/2 16/5/2 18/6/2
f 9/7/3 17/8/3 20/9/3
f 1/10/4 21/11/4 24/12/4
f 15/13/5 23/14/5 16/5/5
f 3/15/6 2/16/6 27/17/6
f 5/18/7 4/19/7 7/20/7
f 6/21/8 5/18/8 26/22/8
f 7/20/9 4/19/9 27/23/9
f 27/17/10 2/16/10 25/24/10
f 25/25/11 26/26/11 7/27/11
f 16/5/12 23/14/12 5/18/12
f 24/12/13 21/11/13 4/19/13
f 22/28/14 3/29/14 4/19/14
f 22/28/15 19/30/15 3/29/15
f 20/9/16 17/8/16 2/16/16
f 18/6/17 6/21/17 2/16/17
f 23/14/18 24/12/18 5/18/18
f 23/14/19 15/13/19 24/12/19
f 21/11/20 14/31/20 22/28/20
f 14/31/21 13/32/21 22/28/21
f 19/30/22 20/33/22 3/29/22
f 17/8/23 9/7/23 18/6/23
f 1/10/24 12/34/24 14/31/24
f 12/35/25 8/36/25 13/32/25
f 8/36/26 9/37/26 13/32/26
f 10/4/27 11/38/27 15/13/27
f 11/39/28 10/4/28 9/7/28
usemtl Black
f 8/40/29 12/34/29 1/10/29
f 1/10/30 14/31/30 21/11/30
f 13/32/31 19/30/31 22/28/31
f 2/16/32 6/21/32 25/25/32
f 4/19/33 3/29/33 27/41/33
f 26/22/34 5/18/34 7/42/34
f 27/17/35 25/24/35 7/43/35
f 25/25/36 6/21/36 26/26/36
f 16/5/37 5/18/37 6/21/37
f 24/12/38 4/19/38 5/18/38
f 20/9/39 2/16/39 3/15/39
f 18/6/40 16/5/40 6/21/40
f 15/13/41 1/10/41 24/12/41
f 21/11/42 22/28/42 4/19/42
f 19/30/43 13/32/43 20/33/43
f 13/32/44 9/37/44 20/33/44
f 17/8/45 18/6/45 2/16/45
f 9/7/46 10/4/46 18/6/46
f 10/4/47 15/13/47 16/5/47
f 11/3/48 1/2/48 15/13/48
f 12/34/49 13/32/49 14/31/49
f 8/44/50 11/39/50 9/7/50
