# Blender v2.82 (sub 7) OBJ File: 'GoalBox.blend'
# www.blender.org
mtllib GoalCap.mtl
o Deckel_Cube.001
v 0.894790 0.912190 -1.242086
v 0.500000 0.707313 -1.446963
v 0.894790 0.205083 -0.534979
v 0.500000 0.000206 -0.739856
v -0.816926 0.912190 -1.242086
v -0.500000 0.707313 -1.446963
v -0.816926 0.205083 -0.534979
v -0.500000 0.000206 -0.739856
v 0.771930 0.255831 -0.585739
v -0.694066 0.255831 -0.585739
v 0.771930 0.861431 -1.191339
v -0.694066 0.861431 -1.191339
v 0.558413 0.221056 -0.796920
v -0.480550 0.221056 -0.796920
v 0.558413 0.650250 -1.226113
v -0.480550 0.650250 -1.226113
v -0.500000 0.398721 -1.138371
v 0.894790 0.603598 -0.933494
v -0.816926 0.603598 -0.933494
v 0.500000 0.398721 -1.138371
v 0.771930 0.597137 -0.927046
v -0.694066 0.597137 -0.927046
v 0.558413 0.462943 -1.038807
v -0.480550 0.462943 -1.038807
v -0.500000 0.332736 -1.072386
v 0.894790 0.537613 -0.867509
v 0.771930 0.540625 -0.870533
v 0.558413 0.422892 -0.998756
v -0.816926 0.537613 -0.867509
v 0.500000 0.332736 -1.072386
v -0.694066 0.540625 -0.870533
v -0.480550 0.422892 -0.998756
v 0.276503 0.707313 -1.446963
v 0.484244 0.205083 -0.534979
v 0.248520 0.000206 -0.739856
v 0.512227 0.912190 -1.242086
v 0.444285 0.255831 -0.585739
v 0.444285 0.861431 -1.191339
v 0.326209 0.221056 -0.796920
v 0.326209 0.650250 -1.226113
v 0.326209 0.462943 -1.038807
v 0.276503 0.398721 -1.138371
v 0.326209 0.422892 -0.998756
v 0.276503 0.332736 -1.072386
v 0.199854 0.707313 -1.446963
v 0.381026 0.205083 -0.534979
v 0.331918 0.255831 -0.585739
v 0.246573 0.221056 -0.796920
v 0.199854 0.398721 -1.138371
v 0.199854 0.332736 -1.072386
v 0.199854 0.000206 -0.739856
v 0.381026 0.912190 -1.242086
v 0.331918 0.861431 -1.191339
v 0.246573 0.650250 -1.226113
v 0.246573 0.462943 -1.038807
v 0.246573 0.422892 -0.998756
v -0.190863 0.707313 -1.446963
v -0.287771 0.205083 -0.534979
v -0.240872 0.255831 -0.585739
v -0.159368 0.221056 -0.796920
v -0.190863 0.398721 -1.138371
v -0.190863 0.332736 -1.072386
v -0.190863 0.000206 -0.739856
v -0.287771 0.912190 -1.242086
v -0.240872 0.861431 -1.191339
v -0.159368 0.650250 -1.226113
v -0.159368 0.462943 -1.038807
v -0.159368 0.422892 -0.998756
v -0.263494 0.707313 -1.446963
v -0.480399 0.205083 -0.534979
v -0.347350 0.255831 -0.585739
v -0.234829 0.221056 -0.796920
v -0.263494 0.398721 -1.138371
v -0.263494 0.332736 -1.072386
v -0.280144 0.000206 -0.739856
v -0.412095 0.912190 -1.242086
v -0.347349 0.861431 -1.191339
v -0.234829 0.650250 -1.226113
v -0.234829 0.462943 -1.038807
v -0.234829 0.422892 -0.998756
v 0.276503 0.328778 -1.208313
v 0.276503 0.262793 -1.142329
v 0.199854 0.328778 -1.208313
v 0.199854 0.262793 -1.142329
v -0.190863 0.325623 -1.211469
v -0.190863 0.259637 -1.145484
v -0.263494 0.325623 -1.211469
v -0.263494 0.259637 -1.145484
v 0.199578 0.261696 -1.275395
v 0.199578 0.195711 -1.209410
v 0.199349 0.324928 -1.212163
v 0.199349 0.258943 -1.146178
v -0.007702 0.261185 -1.275906
v -0.007702 0.195200 -1.209921
v -0.007931 0.324417 -1.212674
v -0.007931 0.258432 -1.146689
v -0.189079 0.321590 -1.215501
v -0.189079 0.255605 -1.149516
v -0.188399 0.261675 -1.275416
v -0.188399 0.195690 -1.209431
v 0.301592 0.000206 -0.739856
v 0.555171 0.912190 -1.242086
v 0.481064 0.861431 -1.191339
v 0.352274 0.650250 -1.226113
v 0.352274 0.462943 -1.038807
v 0.352274 0.422892 -0.998756
v 0.301592 0.707313 -1.446963
v 0.555171 0.205083 -0.534979
v 0.481064 0.255831 -0.585739
v 0.352274 0.221056 -0.796920
v 0.301592 0.398721 -1.138371
v 0.301592 0.332736 -1.072386
v -0.343650 0.707313 -1.446963
v -0.553319 0.205083 -0.534979
v -0.467490 0.255831 -0.585739
v -0.318328 0.221056 -0.796920
v -0.343650 0.398721 -1.138371
v -0.343650 0.332736 -1.072386
v -0.343650 0.000206 -0.739856
v -0.553319 0.912190 -1.242086
v -0.467490 0.861431 -1.191339
v -0.318328 0.650250 -1.226113
v -0.318328 0.462943 -1.038807
v -0.318328 0.422892 -0.998756
v 0.815129 0.870850 -1.283426
v -0.752977 0.163743 -0.576319
v 0.815129 0.163743 -0.576319
v -0.752977 0.870850 -1.283426
v 0.815129 0.562258 -0.974834
v -0.752977 0.562258 -0.974834
v -0.752977 0.496273 -0.908849
v 0.815129 0.496273 -0.908849
v 0.464663 0.870850 -1.283426
v 0.436679 0.163743 -0.576319
v 0.344469 0.870850 -1.283426
v 0.344469 0.163743 -0.576319
v -0.268217 0.870850 -1.283426
v -0.268217 0.163743 -0.576319
v -0.382111 0.870850 -1.283426
v -0.439992 0.163743 -0.576319
v 0.504004 0.163743 -0.576319
v 0.504004 0.870850 -1.283426
v -0.511012 0.870850 -1.283426
v -0.511012 0.163743 -0.576319
v -0.480399 0.179322 -0.509218
v -0.553319 0.179322 -0.509218
v -0.439992 0.137982 -0.550558
v -0.511012 0.137982 -0.550558
v 0.555171 0.175331 -0.505227
v 0.484244 0.175331 -0.505227
v 0.436679 0.133991 -0.546567
v 0.504004 0.133991 -0.546567
vt 0.625000 0.117567
vt 0.625000 0.000000
vt 0.625000 0.000000
vt 0.625000 0.117567
vt 0.574555 0.962325
vt 0.625000 0.962324
vt 0.625000 1.000000
vt 0.574555 1.000000
vt 0.574555 0.140896
vt 0.625000 0.140896
vt 0.625000 0.250000
vt 0.574555 0.250000
vt 0.325398 0.632433
vt 0.375000 0.632433
vt 0.375000 0.750000
vt 0.325398 0.750000
vt 0.574555 0.632433
vt 0.625000 0.632433
vt 0.625000 0.750000
vt 0.574555 0.750000
vt 0.574555 0.450398
vt 0.625000 0.450398
vt 0.625000 0.500000
vt 0.574555 0.500000
vt 0.625000 0.000000
vt 0.625000 0.117567
vt 0.625000 0.609104
vt 0.625000 0.500000
vt 0.625000 0.609104
vt 0.625000 0.287676
vt 0.625000 0.250000
vt 0.625000 0.287676
vt 0.625000 0.799602
vt 0.625000 0.750000
vt 0.625000 0.799602
vt 0.837324 0.632433
vt 0.875000 0.632433
vt 0.875000 0.750000
vt 0.837324 0.750000
vt 0.625000 0.750000
vt 0.625000 0.799602
vt 0.625000 0.250000
vt 0.625000 0.287676
vt 0.625000 0.500000
vt 0.625000 0.609104
vt 0.625000 0.632433
vt 0.625000 0.632433
vt 0.837324 0.500000
vt 0.875000 0.500000
vt 0.875000 0.609104
vt 0.837324 0.609104
vt 0.625000 0.140896
vt 0.625000 0.140896
vt 0.574555 0.609104
vt 0.325398 0.500000
vt 0.375000 0.500000
vt 0.375000 0.609104
vt 0.325398 0.609104
vt 0.574555 0.117567
vt 0.574555 0.000000
vt 0.674602 0.609104
vt 0.680874 0.609104
vt 0.680874 0.632433
vt 0.674602 0.632433
vt 0.299964 0.500000
vt 0.319126 0.500000
vt 0.319126 0.609104
vt 0.299964 0.609104
vt 0.674602 0.500000
vt 0.680874 0.500000
vt 0.625000 0.450398
vt 0.625000 0.444126
vt 0.625000 0.444126
vt 0.625000 0.450398
vt 0.625000 0.825036
vt 0.625000 0.805874
vt 0.625000 0.805874
vt 0.625000 0.825036
vt 0.680874 0.750000
vt 0.674602 0.750000
vt 0.625000 0.825036
vt 0.625000 0.805874
vt 0.625000 0.444126
vt 0.574555 0.424964
vt 0.625000 0.424964
vt 0.574555 0.444126
vt 0.299964 0.632433
vt 0.319126 0.632433
vt 0.319126 0.750000
vt 0.299964 0.750000
vt 0.574555 0.799602
vt 0.625000 0.799602
vt 0.574555 0.799602
vt 0.202284 0.632433
vt 0.202284 0.750000
vt 0.574555 0.327284
vt 0.625000 0.327284
vt 0.625000 0.922716
vt 0.625000 0.922716
vt 0.625000 0.922716
vt 0.202284 0.500000
vt 0.202284 0.609104
vt 0.700036 0.609104
vt 0.700036 0.632433
vt 0.700036 0.500000
vt 0.625000 0.424964
vt 0.625000 0.424964
vt 0.700036 0.750000
vt 0.574555 0.805874
vt 0.574555 0.825036
vt 0.184126 0.500000
vt 0.184126 0.609104
vt 0.625000 0.940874
vt 0.625000 0.940874
vt 0.625000 0.940874
vt 0.574555 0.309126
vt 0.625000 0.309126
vt 0.184126 0.632433
vt 0.184126 0.750000
vt 0.797716 0.609104
vt 0.797716 0.632433
vt 0.797716 0.500000
vt 0.625000 0.327284
vt 0.625000 0.327284
vt 0.797716 0.750000
vt 0.574555 0.922716
vt 0.162676 0.632433
vt 0.162676 0.750000
vt 0.574555 0.287676
vt 0.625000 0.962324
vt 0.625000 0.962324
vt 0.162676 0.500000
vt 0.162676 0.609104
vt 0.815874 0.609104
vt 0.815874 0.632433
vt 0.815874 0.500000
vt 0.625000 0.309127
vt 0.625000 0.309126
vt 0.815874 0.750000
vt 0.574555 0.940874
vt 0.299964 0.609104
vt 0.319126 0.609104
vt 0.319126 0.632433
vt 0.299964 0.632433
vt 0.184126 0.609104
vt 0.202284 0.609104
vt 0.202284 0.632433
vt 0.184126 0.632433
vt 0.125000 0.609104
vt 0.125000 0.632433
vt 0.125000 0.500000
vt 0.625000 1.000000
vt 0.625000 1.000000
vt 0.125000 0.750000
vt 0.625000 0.962324
vt 0.625000 0.940874
vt 0.375000 0.940873
vt 0.375000 0.962324
vt 0.375000 0.250000
vt 0.375000 0.287676
vt 0.375000 0.444126
vt 0.375000 0.450398
vt 0.375000 0.799602
vt 0.375000 0.922716
vt 0.375000 0.309126
vt 0.375000 0.825036
vt 0.375000 0.327284
vt 0.375000 0.805874
vt 0.375000 0.424964
vt 0.375000 0.000000
vt 0.375000 0.117567
vt 0.375000 0.140896
vt 0.375000 1.000000
vt 0.574555 0.940874
vt 0.574555 0.962325
vt 0.625000 0.805874
vt 0.574555 0.805874
vt 0.299964 0.632433
vt 0.319126 0.632433
vt 0.202284 0.632433
vt 0.202284 0.609104
vt 0.299964 0.609104
vt 0.319126 0.609104
vt 0.319126 0.609104
vt 0.299964 0.609104
vt 0.184126 0.632433
vt 0.184126 0.609104
vt 0.299964 0.632433
vt 0.319126 0.632433
vn 0.0001 0.7071 0.7071
vn 0.0000 -0.7071 0.7071
vn -0.6747 -0.5219 -0.5219
vn 0.0000 -0.7071 -0.7071
vn 0.5917 -0.5701 -0.5701
vn 0.0000 0.7071 -0.7071
vn 0.6315 0.5482 0.5482
vn -0.0001 0.7071 0.7071
vn 0.0000 0.7070 0.7072
vn 0.0000 0.7072 0.7070
vn 0.0000 0.7071 0.7071
vn 0.0000 0.9867 -0.1625
vn 0.0000 -0.1625 0.9867
vn -0.6315 0.5482 0.5482
vn 0.7525 -0.4657 -0.4657
vn -1.0000 -0.0018 -0.0018
vn 1.0000 0.0057 0.0057
vn -0.8101 -0.4145 -0.4145
vn 0.8226 0.4020 0.4020
vn -0.7757 0.4463 0.4462
vn 1.0000 -0.0000 0.0000
vn -1.0000 0.0000 0.0000
vn -0.0035 0.7071 0.7071
vn 0.7767 -0.4454 -0.4454
vn -0.9957 0.0653 0.0653
vn 0.0035 -0.7071 -0.7071
vn 0.9544 0.2111 0.2111
vn -0.7693 -0.4517 -0.4517
vn -0.0038 -0.7071 -0.7071
vn -0.0221 0.7069 0.7069
usemtl Red
s off
f 29/1/1 7/2/1 10/3/1 31/4/1
f 144/5/2 114/6/2 7/7/2 126/8/2
f 130/9/3 19/10/3 5/11/3 128/12/3
f 112/13/4 30/14/4 4/15/4 101/16/4
f 132/17/5 26/18/5 3/19/5 127/20/5
f 142/21/6 102/22/6 1/23/6 125/24/6
f 31/4/7 10/3/7 14/25/7 32/26/7
f 18/27/8 1/23/8 11/28/8 21/29/8
f 120/30/9 5/11/9 12/31/9 121/32/9
f 108/33/10 3/19/10 9/34/10 109/35/10
f 124/36/11 32/37/11 14/38/11 116/39/11
f 109/35/12 9/34/12 13/40/12 110/41/12
f 121/32/13 12/31/13 16/42/13 122/43/13
f 21/29/14 11/28/14 15/44/14 23/45/14
f 27/46/14 21/29/14 23/45/14 28/47/14
f 122/48/11 16/49/11 24/50/11 123/51/11
f 26/18/8 18/27/8 21/29/8 27/46/8
f 12/31/7 22/52/7 24/53/7 16/42/7
f 125/24/5 1/23/5 18/27/5 129/54/5
f 107/55/4 2/56/4 20/57/4 111/58/4
f 131/59/3 29/1/3 19/10/3 130/9/3
f 5/11/1 19/10/1 22/52/1 12/31/1
f 126/60/3 7/2/3 29/1/3 131/59/3
f 3/19/8 26/18/8 27/46/8 9/34/8
f 9/34/14 27/46/14 28/47/14 13/40/14
f 123/51/11 24/50/11 32/37/11 124/36/11
f 22/52/7 31/4/7 32/26/7 24/53/7
f 129/54/5 18/27/5 26/18/5 132/17/5
f 111/58/4 20/57/4 30/14/4 112/13/4
f 19/10/1 29/1/1 31/4/1 22/52/1
f 105/61/11 41/62/11 43/63/11 106/64/11
f 45/65/4 33/66/4 42/67/4 49/68/4
f 104/69/11 40/70/11 41/62/11 105/61/11
f 103/71/13 38/72/13 40/73/13 104/74/13
f 47/75/12 37/76/12 39/77/12 48/78/12
f 106/64/11 43/63/11 39/79/11 110/80/11
f 46/81/10 34/82/10 37/76/10 47/75/10
f 102/22/9 36/83/9 38/72/9 103/71/9
f 135/84/6 52/85/6 36/83/6 133/86/6
f 50/87/4 44/88/4 35/89/4 51/90/4
f 141/91/15 108/33/15 149/92/15 152/93/15
f 62/94/4 50/87/4 51/90/4 63/95/4
f 137/96/6 64/97/6 52/85/6 135/84/6
f 58/98/10 46/81/10 47/75/10 59/99/10
f 59/99/12 47/75/12 48/78/12 60/100/12
f 57/101/4 45/65/4 49/68/4 61/102/4
f 61/102/4 49/68/4 50/87/4 62/94/4
f 41/62/11 55/103/11 56/104/11 43/63/11
f 40/70/11 54/105/11 55/103/11 41/62/11
f 38/72/13 53/106/13 54/107/13 40/73/13
f 43/63/11 56/104/11 48/108/11 39/79/11
f 36/83/9 52/85/9 53/106/9 38/72/9
f 134/109/2 34/82/2 46/81/2 136/110/2
f 69/111/4 57/101/4 61/102/4 73/112/4
f 71/113/12 59/99/12 60/100/12 72/114/12
f 70/115/10 58/98/10 59/99/10 71/113/10
f 139/116/6 76/117/6 64/97/6 137/96/6
f 74/118/4 62/94/4 63/95/4 75/119/4
f 55/103/11 67/120/11 68/121/11 56/104/11
f 54/105/11 66/122/11 67/120/11 55/103/11
f 53/106/13 65/123/13 66/124/13 54/107/13
f 56/104/11 68/121/11 60/125/11 48/108/11
f 52/85/9 64/97/9 65/123/9 53/106/9
f 136/110/2 46/81/2 58/98/2 138/126/2
f 118/127/4 74/118/4 75/119/4 119/128/4
f 143/129/6 120/30/6 76/117/6 139/116/6
f 114/6/10 70/115/10 71/113/10 115/130/10
f 115/130/12 71/113/12 72/114/12 116/131/12
f 113/132/4 69/111/4 73/112/4 117/133/4
f 117/133/4 73/112/4 74/118/4 118/127/4
f 67/120/11 79/134/11 80/135/11 68/121/11
f 66/122/11 78/136/11 79/134/11 67/120/11
f 65/123/13 77/137/13 78/138/13 66/124/13
f 68/121/11 80/135/11 72/139/11 60/125/11
f 64/97/9 76/117/9 77/137/9 65/123/9
f 138/126/2 58/98/2 70/115/2 140/140/2
f 95/141/16 93/142/16 94/143/16 96/144/16
f 99/145/17 97/146/17 98/147/17 100/148/17
f 127/20/2 3/19/2 108/33/2 141/91/2
f 1/23/9 102/22/9 103/71/9 11/28/9
f 28/47/11 106/64/11 110/80/11 13/40/11
f 11/28/13 103/71/13 104/74/13 15/44/13
f 15/44/11 104/69/11 105/61/11 23/45/11
f 23/45/11 105/61/11 106/64/11 28/47/11
f 42/67/4 111/58/4 112/13/4 44/88/4
f 33/66/4 107/55/4 111/58/4 42/67/4
f 37/76/12 109/35/12 110/41/12 39/77/12
f 34/82/10 108/33/10 109/35/10 37/76/10
f 133/86/6 36/83/6 102/22/6 142/21/6
f 44/88/4 112/13/4 101/16/4 35/89/4
f 17/149/4 117/133/4 118/127/4 25/150/4
f 6/151/4 113/132/4 117/133/4 17/149/4
f 10/152/12 115/130/12 116/131/12 14/153/12
f 7/7/10 114/6/10 115/130/10 10/152/10
f 128/12/6 5/11/6 120/30/6 143/129/6
f 25/150/4 118/127/4 119/128/4 8/154/4
f 79/134/11 123/51/11 124/36/11 80/135/11
f 78/136/11 122/48/11 123/51/11 79/134/11
f 77/137/13 121/32/13 122/43/13 78/138/13
f 80/135/11 124/36/11 116/39/11 72/139/11
f 76/117/9 120/30/9 121/32/9 77/137/9
f 70/115/11 114/6/11 146/155/11 145/156/11
f 75/157/2 140/140/2 144/5/2 119/158/2
f 6/159/6 128/12/6 143/129/6 113/160/6
f 33/161/6 133/86/6 142/21/6 107/162/6
f 4/15/2 127/20/2 141/91/2 101/163/2
f 63/164/2 138/126/2 140/140/2 75/157/2
f 113/160/6 143/129/6 139/116/6 69/165/6
f 51/166/2 136/110/2 138/126/2 63/164/2
f 69/165/6 139/116/6 137/96/6 57/167/6
f 35/168/2 134/109/2 136/110/2 51/166/2
f 57/167/6 137/96/6 135/84/6 45/169/6
f 101/163/2 141/91/2 134/109/2 35/168/2
f 45/169/6 135/84/6 133/86/6 33/161/6
f 20/57/5 129/54/5 132/17/5 30/14/5
f 8/170/3 126/60/3 131/59/3 25/171/3
f 25/171/3 131/59/3 130/9/3 17/172/3
f 2/56/5 125/24/5 129/54/5 20/57/5
f 107/162/6 142/21/6 125/24/6 2/56/6
f 30/14/5 132/17/5 127/20/5 4/15/5
f 17/172/3 130/9/3 128/12/3 6/159/3
f 119/158/2 144/5/2 126/8/2 8/173/2
f 147/174/2 145/156/2 146/155/2 148/175/2
f 114/6/18 144/5/18 148/175/18 146/155/18
f 140/140/19 70/115/19 145/156/19 147/174/19
f 144/5/4 140/140/4 147/174/4 148/175/4
f 152/93/2 149/92/2 150/176/2 151/177/2
f 134/109/4 141/91/4 152/93/4 151/177/4
f 108/33/11 34/82/11 150/176/11 149/92/11
f 34/82/20 134/109/20 151/177/20 150/176/20
usemtl White
f 44/88/2 50/87/2 84/178/2 82/179/2
f 61/102/21 62/94/21 86/180/21 85/181/21
f 83/182/6 81/183/6 89/184/6 91/185/6
f 42/67/21 44/88/21 82/179/21 81/183/21
f 50/87/22 49/68/22 83/182/22 84/178/22
f 49/68/6 42/67/6 81/183/6 83/182/6
f 86/180/2 88/186/2 100/148/2 98/147/2
f 74/118/22 73/112/22 87/187/22 88/186/22
f 73/112/6 61/102/6 85/181/6 87/187/6
f 62/94/2 74/118/2 88/186/2 86/180/2
f 92/188/23 91/185/23 95/141/23 96/144/23
f 82/179/2 84/178/2 92/188/2 90/189/2
f 81/183/24 82/179/24 90/189/24 89/184/24
f 84/178/25 83/182/25 91/185/25 92/188/25
f 91/185/6 89/184/6 93/142/6 95/141/6
f 90/189/2 92/188/2 96/144/2 94/143/2
f 89/184/26 90/189/26 94/143/26 93/142/26
f 85/181/27 86/180/27 98/147/27 97/146/27
f 88/186/28 87/187/28 99/145/28 100/148/28
f 87/187/6 85/181/6 97/146/6 99/145/6
f 95/141/6 93/142/6 99/145/6 97/146/6
f 93/142/29 94/143/29 100/148/29 99/145/29
f 94/143/2 96/144/2 98/147/2 100/148/2
f 97/146/30 98/147/30 96/144/30 95/141/30
