# Blender v2.82 (sub 7) OBJ File: 'paperball.blend'
# www.blender.org
mtllib paperball1.mtl
o Paperball_Cube
v 0.039696 0.017906 -0.067341
v 0.067341 -0.020330 0.067341
v -0.050337 0.049241 -0.069116
v -0.067341 -0.032445 0.067341
v -0.065082 0.025052 0.066222
v -0.012876 0.003804 -0.067341
v -0.067341 -0.031564 -0.002180
v 0.067612 0.011164 -0.002484
v -0.112220 0.001440 0.008372
v 0.067341 -0.067341 -0.002180
v -0.067341 -0.051831 0.032635
v 0.067086 0.024821 0.033139
v 0.103163 0.004832 0.038701
v -0.039564 0.036240 0.032635
v 0.093069 -0.036425 0.032635
v -0.107427 0.003804 0.047594
v -0.067341 0.024830 -0.041070
v 0.065315 -0.063293 -0.041608
v -0.067341 0.003804 -0.081783
v -0.067341 -0.067341 -0.041070
v 0.067662 0.009804 -0.019826
v -0.000351 -0.067614 -0.067012
v 0.001756 0.026631 0.067341
v 0.001756 -0.067341 0.067341
v 0.001756 0.067341 -0.067341
v 0.006774 -0.008223 -0.084729
v -0.004901 0.003804 0.104619
v 0.001756 -0.093133 -0.002180
v 0.008492 0.057251 0.029326
v 0.001756 -0.067341 0.032635
v 0.001756 0.042393 -0.024075
vt 0.625000 0.871740
vt 0.607685 1.000000
vt 0.507061 0.871740
vt 0.746740 0.750000
vt 0.746740 0.663913
vt 0.875000 0.685578
vt 0.875000 0.750000
vt 0.375000 0.364906
vt 0.507061 0.418012
vt 0.373167 0.547755
vt 0.507061 0.692760
vt 0.375000 0.750000
vt 0.375000 0.685578
vt 0.375000 0.620953
vt 0.253260 0.620953
vt 0.601672 0.620953
vt 0.625000 0.685571
vt 0.625000 0.500000
vt 0.576089 0.548764
vt 0.509116 0.129047
vt 0.625000 0.201236
vt 0.507061 0.201236
vt 0.239906 0.500000
vt 0.125000 0.548764
vt 0.375000 0.871740
vt 0.625000 0.250000
vt 0.507061 0.250000
vt 0.253260 0.750000
vt 0.253260 0.685578
vt 0.375000 0.201236
vt 0.625000 0.378260
vt 0.375000 1.000000
vt 0.375000 0.129047
vt 0.375000 0.064422
vt 0.507061 0.064422
vt 0.875000 0.620953
vt 0.746740 0.548764
vt 0.875000 0.548764
vt 0.625000 0.064422
vt 0.375000 0.000000
vt 0.607685 0.000000
vt 0.746740 0.500000
vt 0.875000 0.500000
vt 0.125000 0.685578
vt 0.125000 0.620953
vt 0.125000 0.750000
vn -0.0289 0.8547 0.5182
vn -0.1651 0.8823 0.4408
vn 0.3609 -0.3061 -0.8809
vn 0.7097 -0.2694 0.6510
vn 0.3636 -0.9246 -0.1136
vn 0.4971 0.8126 -0.3042
vn 0.6854 -0.5345 -0.4945
vn -0.6957 0.6382 -0.3296
vn 0.0307 -0.9955 0.0899
vn 0.4759 0.8235 -0.3087
vn 0.3013 -0.4203 0.8559
vn -0.2907 0.3564 -0.8880
vn 0.4168 -0.8393 0.3491
vn -0.0910 -0.2829 -0.9548
vn 0.3033 0.2328 -0.9240
vn -0.3777 -0.2625 0.8879
vn -0.7334 -0.6701 -0.1145
vn 0.9993 -0.0122 -0.0354
vn -0.3509 0.9349 -0.0526
vn -0.4315 0.9021 -0.0016
vn -0.6245 -0.2972 0.7223
vn -0.4368 0.8990 -0.0324
vn 0.7839 -0.0380 -0.6197
vn 0.2863 -0.7920 0.5392
vn -0.3151 0.8139 0.4882
vn -0.4043 0.9098 -0.0943
vn -0.8795 -0.4349 -0.1932
vn 0.6902 0.1862 -0.6992
vn 0.6146 0.7830 0.0958
vn -0.4859 -0.8713 0.0691
vn 0.4789 0.8447 -0.2389
vn -0.2715 -0.9509 -0.1483
vn -0.2164 0.0498 -0.9750
vn 0.5055 0.2276 0.8323
vn -0.6995 -0.1259 -0.7034
vn -0.3314 -0.9087 0.2538
vn 0.3211 0.7710 0.5500
vn 0.3465 0.6996 0.6249
usemtl Material
s off
f 23/1/1 5/2/1 27/3/1
f 23/4/2 29/5/2 14/6/2 5/7/2
f 22/8/3 26/9/3 18/10/3
f 13/11/4 2/12/4 15/13/4
f 18/10/5 10/14/5 28/15/5
f 8/16/6 12/17/6 13/11/6
f 1/18/7 21/19/7 26/9/7
f 9/20/8 17/21/8 19/22/8
f 22/23/9 18/10/9 20/24/9
f 29/5/10 12/17/10 8/16/10
f 2/12/11 27/3/11 24/25/11
f 3/26/12 6/27/12 19/22/12 17/21/12
f 2/12/13 24/28/13 30/29/13 15/13/13
f 22/8/14 20/30/14 19/22/14 6/27/14
f 26/9/15 25/31/15 1/18/15
f 4/32/16 24/25/16 27/3/16 5/2/16
f 7/33/17 11/34/17 16/35/17 9/20/17
f 10/14/18 18/10/18 21/19/18 8/16/18
f 9/36/19 29/5/19 31/37/19 17/38/19
f 16/35/20 14/39/20 9/20/20
f 16/35/21 11/34/21 4/40/21 5/41/21
f 5/41/22 14/39/22 16/35/22
f 15/13/23 10/14/23 8/16/23 13/11/23
f 30/29/24 28/15/24 10/14/24 15/13/24
f 31/37/25 25/42/25 3/43/25 17/38/25
f 29/5/26 9/36/26 14/6/26
f 19/22/27 20/30/27 7/33/27 9/20/27
f 26/9/28 21/19/28 18/10/28
f 31/37/29 21/19/29 1/18/29 25/42/29
f 30/29/30 11/44/30 7/45/30 28/15/30
f 8/16/31 21/19/31 31/37/31 29/5/31
f 28/15/32 7/45/32 20/24/32 18/10/32
f 25/31/33 26/9/33 6/27/33 3/26/33
f 2/12/34 13/11/34 27/3/34
f 6/27/35 26/9/35 22/8/35
f 24/28/36 4/46/36 11/44/36 30/29/36
f 23/1/37 27/3/37 13/11/37 12/17/37
f 12/17/38 29/5/38 23/4/38
