# Blender v2.82 (sub 7) OBJ File: 'Pylon.blend'
# www.blender.org
mtllib Pylon.mtl
o Cone
v 0.000001 0.047185 -0.786096
v 0.367680 0.047160 -0.687881
v 0.653596 0.047247 -0.436719
v 0.786094 0.047192 -0.000000
v 0.614221 0.047338 0.504078
v 0.226417 0.047158 0.746395
v -0.076452 0.047165 0.776222
v -0.367680 0.047165 0.687879
v -0.653596 0.047247 0.436719
v -0.020932 2.142659 0.018449
v -0.786096 0.047185 -0.000001
v -0.687877 0.047170 -0.367679
v -0.436718 0.047247 -0.653596
v -0.003743 0.380881 -0.686082
v 0.318220 0.380859 -0.600079
v 0.568584 0.380936 -0.380146
v 0.684607 0.380887 0.002270
v 0.194521 0.380857 0.655858
v -0.070689 0.380864 0.681977
v -0.325705 0.380864 0.604618
v -0.576071 0.380936 0.384687
v -0.692096 0.380881 0.002270
v -0.606089 0.380868 -0.319691
v -0.386159 0.380936 -0.570057
v 0.534105 0.381015 0.443671
v -0.008403 0.715285 -0.561507
v 0.256615 0.715267 -0.490715
v 0.462699 0.715330 -0.309681
v 0.558201 0.715290 0.005099
v 0.154794 0.715265 0.543089
v -0.063509 0.715271 0.564588
v -0.273421 0.715271 0.500912
v -0.479506 0.715330 0.319879
v -0.575010 0.715285 0.005098
v -0.504215 0.715274 -0.259919
v -0.323183 0.715330 -0.466004
v 0.434318 0.715395 0.368431
v -0.012587 1.007354 -0.449659
v 0.201304 1.007339 -0.392524
v 0.367631 1.007390 -0.246415
v 0.444709 1.007358 0.007639
v 0.119127 1.007338 0.441841
v -0.057062 1.007342 0.459193
v -0.226479 1.007342 0.407800
v -0.392806 1.007390 0.261692
v -0.469886 1.007354 0.007638
v -0.412748 1.007345 -0.206252
v -0.266641 1.007390 -0.372580
v 0.344725 1.007443 0.300877
v -0.016667 1.277948 -0.340576
v 0.147361 1.277937 -0.296760
v 0.274913 1.277976 -0.184712
v 0.334023 1.277951 0.010115
v 0.084341 1.277936 0.343095
v -0.050774 1.277939 0.356402
v -0.180696 1.277939 0.316990
v -0.308248 1.277976 0.204943
v -0.367359 1.277948 0.010115
v -0.323542 1.277942 -0.153913
v -0.211495 1.277976 -0.281465
v 0.257347 1.278017 0.234994
v -0.021468 1.578113 -0.212219
v 0.083887 1.578106 -0.184076
v 0.165814 1.578131 -0.112108
v 0.203780 1.578115 0.013030
v 0.043409 1.578105 0.226903
v -0.043375 1.578107 0.235450
v -0.126823 1.578107 0.210136
v -0.208750 1.578131 0.138168
v -0.246717 1.578113 0.013030
v -0.218573 1.578109 -0.092325
v -0.146606 1.578131 -0.174252
v 0.154531 1.578157 0.157469
v -0.016629 1.823949 -0.116782
v 0.045101 1.823945 -0.100292
v 0.093104 1.823960 -0.058124
v 0.115349 1.823950 0.015197
v 0.021384 1.823945 0.140511
v -0.029465 1.823946 0.145519
v -0.078360 1.823946 0.130687
v -0.126363 1.823960 0.088519
v -0.148609 1.823949 0.015197
v -0.132119 1.823946 -0.046533
v -0.089951 1.823960 -0.094536
v 0.086493 1.823975 0.099828
v -0.021377 2.148376 0.010142
v -0.017665 2.148375 0.011133
v -0.014778 2.148376 0.013669
v -0.013440 2.148376 0.018079
v -0.019091 2.148375 0.025616
v -0.022149 2.148375 0.025917
v -0.025090 2.148375 0.025025
v -0.027977 2.148376 0.022489
v -0.029315 2.148376 0.018079
v -0.028323 2.148375 0.014367
v -0.025787 2.148376 0.011479
v -0.015175 2.148377 0.023169
vt 0.249853 0.486930
vt 0.362591 0.460642
vt 0.250000 0.250000
vt 0.447082 0.381509
vt 0.486930 0.249853
vt 0.431082 0.101390
vt 0.319333 0.021440
vt 0.226589 0.012306
vt 0.137409 0.039358
vt 0.052918 0.118491
vt 0.013070 0.250148
vt 0.039358 0.362591
vt 0.118491 0.447082
vt 0.039358 0.362591
vt 0.118491 0.447082
vt 0.052918 0.118491
vt 0.013070 0.250148
vt 0.447082 0.381509
vt 0.486930 0.249853
vt 0.226589 0.012306
vt 0.137409 0.039358
vt 0.249853 0.486930
vt 0.362591 0.460642
vt 0.431082 0.101390
vt 0.319333 0.021440
vt 0.319333 0.021440
vt 0.319333 0.021440
vt 0.226589 0.012306
vt 0.226589 0.012306
vt 0.052918 0.118491
vt 0.052918 0.118491
vt 0.013070 0.250148
vt 0.013070 0.250148
vt 0.249853 0.486930
vt 0.249853 0.486930
vt 0.362591 0.460642
vt 0.362591 0.460642
vt 0.039358 0.362591
vt 0.039358 0.362591
vt 0.118491 0.447082
vt 0.118491 0.447082
vt 0.137409 0.039358
vt 0.137409 0.039358
vt 0.447082 0.381509
vt 0.447082 0.381509
vt 0.486930 0.249853
vt 0.486930 0.249853
vt 0.431082 0.101390
vt 0.431082 0.101390
vt 0.013070 0.250148
vt 0.013070 0.250148
vt 0.039358 0.362591
vt 0.039358 0.362591
vt 0.319333 0.021440
vt 0.319333 0.021440
vt 0.226589 0.012306
vt 0.226589 0.012306
vt 0.052918 0.118491
vt 0.052918 0.118491
vt 0.249853 0.486930
vt 0.249853 0.486930
vt 0.362591 0.460642
vt 0.362591 0.460642
vt 0.118491 0.447082
vt 0.118491 0.447082
vt 0.137409 0.039358
vt 0.137409 0.039358
vt 0.447082 0.381509
vt 0.447082 0.381509
vt 0.486930 0.249853
vt 0.486930 0.249853
vt 0.431082 0.101390
vt 0.431082 0.101390
vt 0.447082 0.381509
vt 0.447082 0.381509
vt 0.486930 0.249853
vt 0.486930 0.249853
vt 0.819333 0.021440
vt 0.931082 0.101390
vt 0.986930 0.249853
vt 0.947082 0.381509
vt 0.862590 0.460642
vt 0.749853 0.486930
vt 0.618491 0.447082
vt 0.539358 0.362591
vt 0.513069 0.250148
vt 0.552918 0.118491
vt 0.637409 0.039358
vt 0.726589 0.012306
vt 0.431082 0.101390
vt 0.431082 0.101390
vt 0.319333 0.021440
vt 0.319333 0.021440
vt 0.013070 0.250148
vt 0.013070 0.250148
vt 0.039358 0.362591
vt 0.039358 0.362591
vt 0.226589 0.012306
vt 0.226589 0.012306
vt 0.052918 0.118491
vt 0.052918 0.118491
vt 0.249853 0.486930
vt 0.249853 0.486930
vt 0.362591 0.460642
vt 0.362591 0.460642
vt 0.118491 0.447082
vt 0.118491 0.447082
vt 0.137409 0.039358
vt 0.137409 0.039358
vn -0.2418 -0.3499 0.9050
vn -0.6178 -0.3516 0.7034
vn -0.8972 -0.3479 0.2721
vn -0.8901 -0.3401 -0.3034
vn -0.4989 -0.3364 -0.7987
vn -0.0923 -0.3365 -0.9372
vn 0.2737 -0.3335 -0.9022
vn 0.6230 -0.3297 -0.7093
vn 0.9041 -0.3277 -0.2743
vn 0.9104 -0.3346 0.2432
vn 0.7068 -0.3393 0.6208
vn 0.2727 -0.3425 0.8991
vn -0.7237 0.2688 -0.6356
vn -0.9244 0.2585 0.2804
vn 0.9183 0.2812 -0.2786
vn -0.2799 0.2654 0.9226
vn 0.2477 0.2807 -0.9273
vn -0.9318 0.2642 -0.2489
vn -0.2793 0.2728 -0.9206
vn 0.9101 0.2747 0.3102
vn 0.6329 0.2834 -0.7205
vn 0.0944 0.2691 0.9585
vn -0.6370 0.2611 0.7253
vn 0.5101 0.2703 0.8165
vn 0.0923 0.3362 0.9373
vn -0.9055 0.3235 0.2747
vn 0.2418 0.3500 -0.9050
vn -0.7077 0.3358 -0.6216
vn -0.2738 0.3318 0.9027
vn -0.2729 0.3406 -0.8997
vn 0.6174 0.3532 -0.7029
vn 0.8892 0.3429 0.3031
vn -0.6237 0.3266 0.7101
vn 0.8962 0.3506 -0.2719
vn 0.4987 0.3376 0.7983
vn -0.9119 0.3303 -0.2436
vn -0.8998 0.3640 -0.2404
vn 0.0911 0.3703 0.9245
vn -0.8940 0.3567 0.2712
vn 0.2382 0.3851 -0.8916
vn -0.6981 0.3699 -0.6131
vn -0.2702 0.3656 0.8907
vn -0.2691 0.3750 -0.8871
vn 0.6081 0.3885 -0.6923
vn 0.8765 0.3774 0.2988
vn -0.6157 0.3600 0.7010
vn 0.8829 0.3857 -0.2678
vn 0.4918 0.3718 0.7873
vn 0.8938 0.3572 -0.2711
vn -0.0000 1.0000 0.0000
vn 0.4974 0.3441 0.7963
vn -0.9097 0.3367 -0.2430
vn 0.0921 0.3426 0.9350
vn -0.9034 0.3298 0.2740
vn 0.2411 0.3566 -0.9026
vn -0.7060 0.3423 -0.6201
vn -0.2732 0.3382 0.9006
vn -0.2722 0.3471 -0.8974
vn 0.6157 0.3599 -0.7010
vn 0.8869 0.3494 0.3023
vn -0.6223 0.3329 0.7085
vn 0.0926 0.3280 0.9401
vn -0.9080 0.3156 0.2755
vn 0.2426 0.3416 -0.9080
vn -0.7099 0.3277 -0.6235
vn -0.2747 0.3237 0.9054
vn -0.2738 0.3324 -0.9025
vn 0.6194 0.3448 -0.7053
vn 0.8920 0.3346 0.3040
vn -0.6255 0.3187 0.7122
vn 0.8992 0.3422 -0.2728
vn 0.5002 0.3295 0.8008
vn -0.9146 0.3223 -0.2443
vn -0.9066 0.3457 -0.2422
vn 0.0918 0.3517 0.9316
vn -0.9004 0.3387 0.2731
vn 0.2402 0.3661 -0.8991
vn -0.7034 0.3514 -0.6178
vn -0.2722 0.3472 0.8974
vn -0.2712 0.3564 -0.8941
vn 0.6132 0.3693 -0.6982
vn 0.8836 0.3587 0.3012
vn -0.6201 0.3419 0.7061
vn 0.8903 0.3666 -0.2701
vn 0.4956 0.3533 0.7935
vn 0.5007 0.3266 0.8016
vn -0.9007 0.3616 -0.2406
vn 0.0923 0.3375 0.9368
vn -0.8947 0.3547 0.2714
vn 0.2421 0.3470 -0.9061
vn -0.7007 0.3610 -0.6154
vn -0.2726 0.3441 0.8985
vn -0.2716 0.3529 -0.8954
vn 0.6209 0.3389 -0.7069
vn 0.8968 0.3199 0.3057
vn -0.6183 0.3494 0.7040
vn 0.9041 0.3276 -0.2743
usemtl Red
s off
f 1/1/1 2/2/1 10/3/1
f 2/2/2 3/4/2 10/3/2
f 3/4/3 4/5/3 10/3/3
f 4/5/4 5/6/4 10/3/4
f 5/6/5 6/7/5 10/3/5
f 6/7/6 7/8/6 10/3/6
f 7/8/7 8/9/7 10/3/7
f 8/9/8 9/10/8 10/3/8
f 9/10/9 11/11/9 10/3/9
f 11/11/10 12/12/10 10/3/10
f 12/12/11 13/13/11 10/3/11
f 13/13/12 1/1/12 10/3/12
f 12/12/13 23/14/13 24/15/13 13/13/13
f 9/10/14 21/16/14 22/17/14 11/11/14
f 3/4/15 16/18/15 17/19/15 4/5/15
f 7/8/16 19/20/16 20/21/16 8/9/16
f 1/1/17 14/22/17 15/23/17 2/2/17
f 11/11/18 22/17/18 23/14/18 12/12/18
f 13/13/19 24/15/19 14/22/19 1/1/19
f 4/5/20 17/19/20 25/24/20 5/6/20
f 2/2/21 15/23/21 16/18/21 3/4/21
f 6/7/22 18/25/22 19/20/22 7/8/22
f 8/9/23 20/21/23 21/16/23 9/10/23
f 5/6/24 25/24/24 18/25/24 6/7/24
f 30/26/25 42/27/25 43/28/25 31/29/25
f 33/30/26 45/31/26 46/32/26 34/33/26
f 26/34/27 38/35/27 39/36/27 27/37/27
f 35/38/28 47/39/28 48/40/28 36/41/28
f 31/29/29 43/28/29 44/42/29 32/43/29
f 36/41/30 48/40/30 38/35/30 26/34/30
f 27/37/31 39/36/31 40/44/31 28/45/31
f 29/46/32 41/47/32 49/48/32 37/49/32
f 32/43/33 44/42/33 45/31/33 33/30/33
f 28/45/34 40/44/34 41/47/34 29/46/34
f 37/49/35 49/48/35 42/27/35 30/26/35
f 34/33/36 46/32/36 47/39/36 35/38/36
f 58/50/37 70/51/37 71/52/37 59/53/37
f 54/54/38 66/55/38 67/56/38 55/57/38
f 57/58/39 69/59/39 70/51/39 58/50/39
f 50/60/40 62/61/40 63/62/40 51/63/40
f 59/53/41 71/52/41 72/64/41 60/65/41
f 55/57/42 67/56/42 68/66/42 56/67/42
f 60/65/43 72/64/43 62/61/43 50/60/43
f 51/63/44 63/62/44 64/68/44 52/69/44
f 53/70/45 65/71/45 73/72/45 61/73/45
f 56/67/46 68/66/46 69/59/46 57/58/46
f 52/69/47 64/68/47 65/71/47 53/70/47
f 61/73/48 73/72/48 66/55/48 54/54/48
f 76/74/49 88/75/49 89/76/49 77/77/49
f 90/78/50 97/79/50 89/80/50 88/81/50 87/82/50 86/83/50 96/84/50 95/85/50 94/86/50 93/87/50 92/88/50 91/89/50
f 85/90/51 97/91/51 90/92/51 78/93/51
f 82/94/52 94/95/52 95/96/52 83/97/52
f 78/93/53 90/92/53 91/98/53 79/99/53
f 81/100/54 93/101/54 94/95/54 82/94/54
f 74/102/55 86/103/55 87/104/55 75/105/55
f 83/97/56 95/96/56 96/106/56 84/107/56
f 79/99/57 91/98/57 92/108/57 80/109/57
f 84/107/58 96/106/58 86/103/58 74/102/58
f 75/105/59 87/104/59 88/75/59 76/74/59
f 77/77/60 89/76/60 97/91/60 85/90/60
f 80/109/61 92/108/61 93/101/61 81/100/61
usemtl White
f 18/25/62 30/26/62 31/29/62 19/20/62
f 21/16/63 33/30/63 34/33/63 22/17/63
f 14/22/64 26/34/64 27/37/64 15/23/64
f 23/14/65 35/38/65 36/41/65 24/15/65
f 19/20/66 31/29/66 32/43/66 20/21/66
f 24/15/67 36/41/67 26/34/67 14/22/67
f 15/23/68 27/37/68 28/45/68 16/18/68
f 17/19/69 29/46/69 37/49/69 25/24/69
f 20/21/70 32/43/70 33/30/70 21/16/70
f 16/18/71 28/45/71 29/46/71 17/19/71
f 25/24/72 37/49/72 30/26/72 18/25/72
f 22/17/73 34/33/73 35/38/73 23/14/73
f 46/32/74 58/50/74 59/53/74 47/39/74
f 42/27/75 54/54/75 55/57/75 43/28/75
f 45/31/76 57/58/76 58/50/76 46/32/76
f 38/35/77 50/60/77 51/63/77 39/36/77
f 47/39/78 59/53/78 60/65/78 48/40/78
f 43/28/79 55/57/79 56/67/79 44/42/79
f 48/40/80 60/65/80 50/60/80 38/35/80
f 39/36/81 51/63/81 52/69/81 40/44/81
f 41/47/82 53/70/82 61/73/82 49/48/82
f 44/42/83 56/67/83 57/58/83 45/31/83
f 40/44/84 52/69/84 53/70/84 41/47/84
f 49/48/85 61/73/85 54/54/85 42/27/85
f 73/72/86 85/90/86 78/93/86 66/55/86
f 70/51/87 82/94/87 83/97/87 71/52/87
f 66/55/88 78/93/88 79/99/88 67/56/88
f 69/59/89 81/100/89 82/94/89 70/51/89
f 62/61/90 74/102/90 75/105/90 63/62/90
f 71/52/91 83/97/91 84/107/91 72/64/91
f 67/56/92 79/99/92 80/109/92 68/66/92
f 72/64/93 84/107/93 74/102/93 62/61/93
f 63/62/94 75/105/94 76/74/94 64/68/94
f 65/71/95 77/77/95 85/90/95 73/72/95
f 68/66/96 80/109/96 81/100/96 69/59/96
f 64/68/97 76/74/97 77/77/97 65/71/97
o Cube_Cube.001
v -0.888948 -0.132859 0.932127
v -0.888948 0.067141 0.932127
v -0.909941 -0.132859 -0.939936
v -0.909941 0.067141 -0.939936
v 0.892650 -0.132859 0.909978
v 0.892650 0.067141 0.909978
v 0.901905 -0.132859 -0.942782
v 0.901905 0.067141 -0.942782
v 0.735789 -0.132859 -1.000000
v 0.735789 0.067141 -1.000000
v 0.735789 -0.132859 1.000000
v 0.735789 0.067141 1.000000
v -0.725816 -0.132859 -1.000000
v -0.725816 0.067141 1.000000
v -0.725816 0.067141 -1.000000
v -0.725816 -0.132859 1.000000
v -1.000000 -0.132859 0.784169
v -1.000000 0.067141 0.784169
v 1.000000 -0.132859 0.784169
v 1.000000 0.067141 0.784169
v 0.735789 0.067141 0.784169
v 0.735789 -0.132859 0.784169
v -0.725816 -0.132859 0.784169
v -0.725816 0.067141 0.784169
v -1.000000 0.067141 -0.788106
v 1.000000 -0.132859 -0.788106
v -1.000000 -0.132859 -0.788106
v 1.000000 0.067141 -0.788106
v 0.735789 0.067141 -0.788106
v 0.735789 -0.132859 -0.788106
v -0.725816 -0.132859 -0.788106
v -0.725816 0.067141 -0.788106
vt 0.375000 0.223513
vt 0.625000 0.223513
vt 0.625000 0.250000
vt 0.375000 0.250000
vt 0.375000 0.466974
vt 0.625000 0.466974
vt 0.625000 0.500000
vt 0.375000 0.500000
vt 0.375000 0.723021
vt 0.625000 0.723021
vt 0.625000 0.750000
vt 0.375000 0.750000
vt 0.375000 0.965727
vt 0.625000 0.965727
vt 0.625000 1.000000
vt 0.375000 1.000000
vt 0.341974 0.723021
vt 0.341974 0.750000
vt 0.840727 0.723021
vt 0.875000 0.723021
vt 0.875000 0.750000
vt 0.840727 0.750000
vt 0.658026 0.723021
vt 0.658026 0.750000
vt 0.159273 0.723021
vt 0.159273 0.750000
vt 0.625000 0.783026
vt 0.375000 0.783026
vt 0.375000 0.284273
vt 0.625000 0.284273
vt 0.125000 0.723021
vt 0.125000 0.750000
vt 0.658026 0.526487
vt 0.840727 0.526487
vt 0.125000 0.526487
vt 0.159273 0.526487
vt 0.341974 0.526487
vt 0.625000 0.526487
vt 0.875000 0.526487
vt 0.375000 0.526487
vt 0.375000 0.000000
vt 0.625000 0.000000
vt 0.625000 0.026979
vt 0.375000 0.026979
vt 0.341974 0.500000
vt 0.840727 0.500000
vt 0.875000 0.500000
vt 0.658026 0.500000
vt 0.159273 0.500000
vt 0.125000 0.500000
vn -0.8601 0.0000 -0.5102
vn 0.3257 0.0000 -0.9455
vn 0.7607 0.0000 0.6491
vn -0.3841 0.0000 0.9233
vn 0.0000 -1.0000 0.0000
vn 0.0000 1.0000 0.0000
vn 0.4978 0.0000 0.8673
vn 0.0000 0.0000 -1.0000
vn -0.3101 0.0000 -0.9507
vn 0.0000 0.0000 1.0000
vn 1.0000 0.0000 0.0000
vn -0.7998 0.0000 0.6003
vn 0.8445 0.0000 -0.5356
vn -1.0000 0.0000 0.0000
usemtl Material
s off
f 124/110/98 122/111/98 101/112/98 100/113/98
f 106/114/99 107/115/99 105/116/99 104/117/99
f 116/118/100 117/119/100 103/120/100 102/121/100
f 113/122/101 111/123/101 99/124/101 98/125/101
f 119/126/102 116/118/102 102/121/102 108/127/102
f 121/128/103 115/129/103 99/130/103 111/131/103
f 117/119/103 118/132/103 109/133/103 103/120/103
f 120/134/102 119/126/102 108/127/102 113/135/102
f 102/121/104 103/120/104 109/136/104 108/137/104
f 110/138/105 112/139/105 107/115/105 106/114/105
f 100/113/106 101/112/106 112/139/106 110/138/106
f 114/140/102 120/134/102 113/135/102 98/141/102
f 118/132/103 121/128/103 111/131/103 109/133/103
f 108/137/107 109/136/107 111/123/107 113/122/107
f 126/142/103 129/143/103 121/128/103 118/132/103
f 124/144/102 128/145/102 120/134/102 114/140/102
f 128/145/102 127/146/102 119/126/102 120/134/102
f 125/147/103 126/142/103 118/132/103 117/119/103
f 129/143/103 122/148/103 115/129/103 121/128/103
f 127/146/102 123/149/102 116/118/102 119/126/102
f 123/149/108 125/147/108 117/119/108 116/118/108
f 98/150/109 99/151/109 115/152/109 114/153/109
f 104/117/110 105/116/110 125/147/110 123/149/110
f 106/154/102 104/117/102 123/149/102 127/146/102
f 112/155/103 101/156/103 122/148/103 129/143/103
f 105/116/103 107/157/103 126/142/103 125/147/103
f 110/158/102 106/154/102 127/146/102 128/145/102
f 100/159/102 110/158/102 128/145/102 124/144/102
f 107/157/103 112/155/103 129/143/103 126/142/103
f 114/153/111 115/152/111 122/111/111 124/110/111
