# Blender v2.82 (sub 7) OBJ File: 'Pylon.blend'
# www.blender.org
mtllib Pylon.mtl
o Cube_Cube.001
v -0.444474 -0.092859 0.466064
v -0.444474 0.027141 0.466064
v -0.454970 -0.092859 -0.469968
v -0.454970 0.027141 -0.469968
v 0.446325 -0.092859 0.454989
v 0.446325 0.027141 0.454989
v 0.450953 -0.092859 -0.471391
v 0.450953 0.027141 -0.471391
v 0.367894 -0.092859 -0.500000
v 0.367894 0.027141 -0.500000
v 0.367894 -0.092859 0.500000
v 0.367894 0.027141 0.500000
v -0.362908 -0.092859 -0.500000
v -0.362908 0.027141 0.500000
v -0.362908 0.027141 -0.500000
v -0.362908 -0.092859 0.500000
v -0.500000 -0.092859 0.392084
v -0.500000 0.027141 0.392084
v 0.500000 -0.092859 0.392084
v 0.500000 0.027141 0.392084
v 0.367894 0.027141 0.392084
v 0.367894 -0.092859 0.392084
v -0.362908 -0.092859 0.392084
v -0.362908 0.027141 0.392084
v -0.500000 0.027141 -0.394053
v 0.500000 -0.092859 -0.394053
v -0.500000 -0.092859 -0.394053
v 0.500000 0.027141 -0.394053
v 0.367894 0.027141 -0.394053
v 0.367894 -0.092859 -0.394053
v -0.362908 -0.092859 -0.394053
v -0.362908 0.027141 -0.394053
v 0.000000 0.015168 -0.393048
v 0.183840 0.015152 -0.343940
v 0.326798 0.015205 -0.218359
v 0.393047 0.015172 -0.000000
v 0.307111 0.015259 0.252039
v 0.113208 0.015151 0.373198
v -0.038226 0.015156 0.388111
v -0.183840 0.015156 0.343940
v -0.326798 0.015205 0.218359
v -0.010466 1.272452 0.009225
v -0.393048 0.015168 -0.000000
v -0.343939 0.015158 -0.183840
v -0.218359 0.015205 -0.326798
v -0.001871 0.215385 -0.343041
v 0.159110 0.215372 -0.300039
v 0.284292 0.215418 -0.190073
v 0.342304 0.215389 0.001135
v 0.097260 0.215371 0.327929
v -0.035344 0.215375 0.340988
v -0.162853 0.215375 0.302309
v -0.288035 0.215418 0.192344
v -0.346048 0.215385 0.001135
v -0.303045 0.215377 -0.159846
v -0.193080 0.215418 -0.285029
v 0.267053 0.215466 0.221836
v -0.004201 0.416028 -0.280754
v 0.128308 0.416017 -0.245358
v 0.231349 0.416054 -0.154841
v 0.279101 0.416031 0.002549
v 0.077397 0.416016 0.271545
v -0.031754 0.416019 0.282294
v -0.136711 0.416019 0.250456
v -0.239753 0.416054 0.159940
v -0.287505 0.416028 0.002549
v -0.252108 0.416021 -0.129959
v -0.161592 0.416054 -0.233002
v 0.217159 0.416094 0.184216
v -0.006293 0.591269 -0.224830
v 0.100652 0.591260 -0.196262
v 0.183815 0.591291 -0.123208
v 0.222355 0.591271 0.003819
v 0.059563 0.591259 0.220921
v -0.028531 0.591262 0.229596
v -0.113239 0.591262 0.203900
v -0.196403 0.591291 0.130846
v -0.234943 0.591269 0.003819
v -0.206374 0.591264 -0.103126
v -0.133320 0.591291 -0.186290
v 0.172363 0.591322 0.150439
v -0.008334 0.753626 -0.170288
v 0.073681 0.753619 -0.148380
v 0.137456 0.753642 -0.092356
v 0.167011 0.753627 0.005058
v 0.042170 0.753618 0.171548
v -0.025387 0.753620 0.178201
v -0.090348 0.753620 0.158495
v -0.154124 0.753642 0.102472
v -0.183679 0.753626 0.005058
v -0.161771 0.753621 -0.076956
v -0.105748 0.753642 -0.140733
v 0.128674 0.753667 0.117497
v -0.010734 0.933724 -0.106109
v 0.041944 0.933720 -0.092038
v 0.082907 0.933735 -0.056054
v 0.101890 0.933726 0.006515
v 0.021705 0.933720 0.113451
v -0.021687 0.933721 0.117725
v -0.063412 0.933721 0.105068
v -0.104375 0.933735 0.069084
v -0.123358 0.933724 0.006515
v -0.109287 0.933722 -0.046162
v -0.073303 0.933735 -0.087126
v 0.077266 0.933751 0.078735
v -0.008315 1.081226 -0.058391
v 0.022550 1.081223 -0.050146
v 0.046552 1.081232 -0.029062
v 0.057675 1.081227 0.007599
v 0.010692 1.081223 0.070255
v -0.014733 1.081224 0.072759
v -0.039180 1.081224 0.065343
v -0.063182 1.081232 0.044259
v -0.074304 1.081226 0.007599
v -0.066059 1.081224 -0.023267
v -0.044976 1.081232 -0.047268
v 0.043247 1.081241 0.049914
v -0.010689 1.275882 0.005071
v -0.008832 1.275882 0.005567
v -0.007389 1.275882 0.006835
v -0.006720 1.275882 0.009040
v -0.009546 1.275882 0.012808
v -0.011075 1.275882 0.012959
v -0.012545 1.275882 0.012513
v -0.013989 1.275882 0.011245
v -0.014658 1.275882 0.009040
v -0.014162 1.275882 0.007183
v -0.012894 1.275882 0.005740
v -0.007588 1.275883 0.011585
vt 0.375000 0.223513
vt 0.625000 0.223513
vt 0.625000 0.250000
vt 0.375000 0.250000
vt 0.375000 0.466974
vt 0.625000 0.466974
vt 0.625000 0.500000
vt 0.375000 0.500000
vt 0.375000 0.723021
vt 0.625000 0.723021
vt 0.625000 0.750000
vt 0.375000 0.750000
vt 0.375000 0.965727
vt 0.625000 0.965727
vt 0.625000 1.000000
vt 0.375000 1.000000
vt 0.341974 0.723021
vt 0.341974 0.750000
vt 0.840727 0.723021
vt 0.875000 0.723021
vt 0.875000 0.750000
vt 0.840727 0.750000
vt 0.658026 0.723021
vt 0.658026 0.750000
vt 0.159273 0.723021
vt 0.159273 0.750000
vt 0.625000 0.783026
vt 0.375000 0.783026
vt 0.375000 0.284273
vt 0.625000 0.284273
vt 0.125000 0.723021
vt 0.125000 0.750000
vt 0.658026 0.526487
vt 0.840727 0.526487
vt 0.125000 0.526487
vt 0.159273 0.526487
vt 0.341974 0.526487
vt 0.625000 0.526487
vt 0.875000 0.526487
vt 0.375000 0.526487
vt 0.375000 0.000000
vt 0.625000 0.000000
vt 0.625000 0.026979
vt 0.375000 0.026979
vt 0.341974 0.500000
vt 0.840727 0.500000
vt 0.875000 0.500000
vt 0.658026 0.500000
vt 0.159273 0.500000
vt 0.125000 0.500000
vt 0.249853 0.486930
vt 0.362591 0.460642
vt 0.250000 0.250000
vt 0.447082 0.381509
vt 0.486930 0.249853
vt 0.431082 0.101390
vt 0.319333 0.021440
vt 0.226589 0.012306
vt 0.137409 0.039358
vt 0.052918 0.118491
vt 0.013070 0.250148
vt 0.039358 0.362591
vt 0.118491 0.447082
vt 0.039358 0.362591
vt 0.118491 0.447082
vt 0.052918 0.118491
vt 0.013070 0.250148
vt 0.447082 0.381509
vt 0.486930 0.249853
vt 0.226589 0.012306
vt 0.137409 0.039358
vt 0.249853 0.486930
vt 0.362591 0.460642
vt 0.431082 0.101390
vt 0.319333 0.021440
vt 0.319333 0.021440
vt 0.319333 0.021440
vt 0.226589 0.012306
vt 0.226589 0.012306
vt 0.052918 0.118491
vt 0.052918 0.118491
vt 0.013070 0.250148
vt 0.013070 0.250148
vt 0.249853 0.486930
vt 0.249853 0.486930
vt 0.362591 0.460642
vt 0.362591 0.460642
vt 0.039358 0.362591
vt 0.039358 0.362591
vt 0.118491 0.447082
vt 0.118491 0.447082
vt 0.137409 0.039358
vt 0.137409 0.039358
vt 0.447082 0.381509
vt 0.447082 0.381509
vt 0.486930 0.249853
vt 0.486930 0.249853
vt 0.431082 0.101390
vt 0.431082 0.101390
vt 0.013070 0.250148
vt 0.013070 0.250148
vt 0.039358 0.362591
vt 0.039358 0.362591
vt 0.319333 0.021440
vt 0.319333 0.021440
vt 0.226589 0.012306
vt 0.226589 0.012306
vt 0.052918 0.118491
vt 0.052918 0.118491
vt 0.249853 0.486930
vt 0.249853 0.486930
vt 0.362591 0.460642
vt 0.362591 0.460642
vt 0.118491 0.447082
vt 0.118491 0.447082
vt 0.137409 0.039358
vt 0.137409 0.039358
vt 0.447082 0.381509
vt 0.447082 0.381509
vt 0.486930 0.249853
vt 0.486930 0.249853
vt 0.431082 0.101390
vt 0.431082 0.101390
vt 0.447082 0.381509
vt 0.447082 0.381509
vt 0.486930 0.249853
vt 0.486930 0.249853
vt 0.819333 0.021440
vt 0.931082 0.101390
vt 0.986930 0.249853
vt 0.947082 0.381509
vt 0.862590 0.460642
vt 0.749853 0.486930
vt 0.618491 0.447082
vt 0.539358 0.362591
vt 0.513069 0.250148
vt 0.552918 0.118491
vt 0.637409 0.039358
vt 0.726589 0.012306
vt 0.431082 0.101390
vt 0.431082 0.101390
vt 0.319333 0.021440
vt 0.319333 0.021440
vt 0.013070 0.250148
vt 0.013070 0.250148
vt 0.039358 0.362591
vt 0.039358 0.362591
vt 0.226589 0.012306
vt 0.226589 0.012306
vt 0.052918 0.118491
vt 0.052918 0.118491
vt 0.249853 0.486930
vt 0.249853 0.486930
vt 0.362591 0.460642
vt 0.362591 0.460642
vt 0.118491 0.447082
vt 0.118491 0.447082
vt 0.137409 0.039358
vt 0.137409 0.039358
vn -0.8601 0.0000 -0.5102
vn 0.3257 0.0000 -0.9455
vn 0.7607 0.0000 0.6491
vn -0.3841 0.0000 0.9233
vn 0.0000 -1.0000 0.0000
vn 0.0000 1.0000 0.0000
vn 0.4978 0.0000 0.8673
vn 0.0000 0.0000 -1.0000
vn -0.3101 0.0000 -0.9507
vn 0.0000 0.0000 1.0000
vn 1.0000 0.0000 0.0000
vn -0.7998 0.0000 0.6003
vn 0.8445 0.0000 -0.5356
vn -1.0000 0.0000 0.0000
vn -0.2464 -0.2972 0.9225
vn -0.6298 -0.2987 0.7170
vn -0.9142 -0.2954 0.2773
vn -0.9063 -0.2886 -0.3089
vn -0.5078 -0.2853 -0.8129
vn -0.0939 -0.2854 -0.9538
vn 0.2784 -0.2828 -0.9179
vn 0.6336 -0.2794 -0.7214
vn 0.9193 -0.2777 -0.2789
vn 0.9264 -0.2837 0.2475
vn 0.7195 -0.2879 0.6320
vn 0.2778 -0.2906 0.9156
vn -0.7318 0.2265 -0.6428
vn -0.9340 0.2176 0.2833
vn 0.9296 0.2372 -0.2820
vn -0.2829 0.2236 0.9327
vn 0.2508 0.2368 -0.9386
vn -0.9419 0.2225 -0.2516
vn -0.2825 0.2300 -0.9313
vn 0.9208 0.2316 0.3139
vn 0.6408 0.2391 -0.7295
vn 0.0955 0.2267 0.9693
vn -0.6438 0.2199 0.7329
vn 0.5159 0.2278 0.8258
vn 0.0939 0.2851 0.9539
vn -0.9203 0.2740 0.2792
vn 0.2464 0.2973 -0.9224
vn -0.7202 0.2848 -0.6326
vn -0.2786 0.2813 0.9183
vn -0.2779 0.2890 -0.9161
vn 0.6295 0.3001 -0.7167
vn 0.9056 0.2910 0.3087
vn -0.6341 0.2767 0.7220
vn 0.9135 0.2978 -0.2771
vn 0.5076 0.2864 0.8126
vn -0.9275 0.2800 -0.2478
vn -0.9186 0.3097 -0.2454
vn 0.0930 0.3152 0.9444
vn -0.9119 0.3032 0.2766
vn 0.2438 0.3284 -0.9125
vn -0.7131 0.3149 -0.6263
vn -0.2759 0.3111 0.9095
vn -0.2751 0.3195 -0.9068
vn 0.6226 0.3315 -0.7089
vn 0.8962 0.3216 0.3055
vn -0.6282 0.3061 0.7153
vn 0.9037 0.3290 -0.2741
vn 0.5025 0.3166 0.8045
vn 0.9118 0.3037 -0.2766
vn 0.5067 0.2921 0.8112
vn -0.9259 0.2855 -0.2474
vn 0.0938 0.2908 0.9522
vn -0.9188 0.2795 0.2787
vn 0.2460 0.3032 -0.9207
vn -0.7190 0.2905 -0.6315
vn -0.2781 0.2869 0.9167
vn -0.2774 0.2947 -0.9144
vn 0.6282 0.3060 -0.7153
vn 0.9039 0.2967 0.3081
vn -0.6331 0.2823 0.7208
vn 0.0942 0.2780 0.9560
vn -0.9222 0.2671 0.2797
vn 0.2470 0.2899 -0.9246
vn -0.7218 0.2777 -0.6340
vn -0.2792 0.2742 0.9203
vn -0.2785 0.2818 -0.9182
vn 0.6310 0.2927 -0.7184
vn 0.9076 0.2837 0.3094
vn -0.6354 0.2698 0.7235
vn 0.9157 0.2904 -0.2778
vn 0.5087 0.2792 0.8144
vn -0.9294 0.2729 -0.2483
vn -0.9236 0.2935 -0.2467
vn 0.0935 0.2988 0.9497
vn -0.9166 0.2873 0.2780
vn 0.2453 0.3115 -0.9181
vn -0.7171 0.2985 -0.6298
vn -0.2774 0.2948 0.9144
vn -0.2766 0.3029 -0.9120
vn 0.6264 0.3144 -0.7132
vn 0.9014 0.3049 0.3073
vn -0.6315 0.2901 0.7190
vn 0.9092 0.3120 -0.2758
vn 0.5053 0.3002 0.8090
vn 0.5091 0.2767 0.8150
vn -0.9193 0.3075 -0.2456
vn 0.0939 0.2863 0.9535
vn -0.9124 0.3014 0.2768
vn 0.2466 0.2946 -0.9232
vn -0.7151 0.3070 -0.6280
vn -0.2776 0.2921 0.9152
vn -0.2769 0.2999 -0.9129
vn 0.6321 0.2875 -0.7196
vn 0.9111 0.2708 0.3106
vn -0.6302 0.2968 0.7175
vn 0.9193 0.2776 -0.2789
usemtl Material
s off
f 27/1/1 25/2/1 4/3/1 3/4/1
f 9/5/2 10/6/2 8/7/2 7/8/2
f 19/9/3 20/10/3 6/11/3 5/12/3
f 16/13/4 14/14/4 2/15/4 1/16/4
f 22/17/5 19/9/5 5/12/5 11/18/5
f 24/19/6 18/20/6 2/21/6 14/22/6
f 20/10/6 21/23/6 12/24/6 6/11/6
f 23/25/5 22/17/5 11/18/5 16/26/5
f 5/12/7 6/11/7 12/27/7 11/28/7
f 13/29/8 15/30/8 10/6/8 9/5/8
f 3/4/9 4/3/9 15/30/9 13/29/9
f 17/31/5 23/25/5 16/26/5 1/32/5
f 21/23/6 24/19/6 14/22/6 12/24/6
f 11/28/10 12/27/10 14/14/10 16/13/10
f 29/33/6 32/34/6 24/19/6 21/23/6
f 27/35/5 31/36/5 23/25/5 17/31/5
f 31/36/5 30/37/5 22/17/5 23/25/5
f 28/38/6 29/33/6 21/23/6 20/10/6
f 32/34/6 25/39/6 18/20/6 24/19/6
f 30/37/5 26/40/5 19/9/5 22/17/5
f 26/40/11 28/38/11 20/10/11 19/9/11
f 1/41/12 2/42/12 18/43/12 17/44/12
f 7/8/13 8/7/13 28/38/13 26/40/13
f 9/45/5 7/8/5 26/40/5 30/37/5
f 15/46/6 4/47/6 25/39/6 32/34/6
f 8/7/6 10/48/6 29/33/6 28/38/6
f 13/49/5 9/45/5 30/37/5 31/36/5
f 3/50/5 13/49/5 31/36/5 27/35/5
f 10/48/6 15/46/6 32/34/6 29/33/6
f 17/44/14 18/43/14 25/2/14 27/1/14
usemtl Red
f 33/51/15 34/52/15 42/53/15
f 34/52/16 35/54/16 42/53/16
f 35/54/17 36/55/17 42/53/17
f 36/55/18 37/56/18 42/53/18
f 37/56/19 38/57/19 42/53/19
f 38/57/20 39/58/20 42/53/20
f 39/58/21 40/59/21 42/53/21
f 40/59/22 41/60/22 42/53/22
f 41/60/23 43/61/23 42/53/23
f 43/61/24 44/62/24 42/53/24
f 44/62/25 45/63/25 42/53/25
f 45/63/26 33/51/26 42/53/26
f 44/62/27 55/64/27 56/65/27 45/63/27
f 41/60/28 53/66/28 54/67/28 43/61/28
f 35/54/29 48/68/29 49/69/29 36/55/29
f 39/58/30 51/70/30 52/71/30 40/59/30
f 33/51/31 46/72/31 47/73/31 34/52/31
f 43/61/32 54/67/32 55/64/32 44/62/32
f 45/63/33 56/65/33 46/72/33 33/51/33
f 36/55/34 49/69/34 57/74/34 37/56/34
f 34/52/35 47/73/35 48/68/35 35/54/35
f 38/57/36 50/75/36 51/70/36 39/58/36
f 40/59/37 52/71/37 53/66/37 41/60/37
f 37/56/38 57/74/38 50/75/38 38/57/38
f 62/76/39 74/77/39 75/78/39 63/79/39
f 65/80/40 77/81/40 78/82/40 66/83/40
f 58/84/41 70/85/41 71/86/41 59/87/41
f 67/88/42 79/89/42 80/90/42 68/91/42
f 63/79/43 75/78/43 76/92/43 64/93/43
f 68/91/44 80/90/44 70/85/44 58/84/44
f 59/87/45 71/86/45 72/94/45 60/95/45
f 61/96/46 73/97/46 81/98/46 69/99/46
f 64/93/47 76/92/47 77/81/47 65/80/47
f 60/95/48 72/94/48 73/97/48 61/96/48
f 69/99/49 81/98/49 74/77/49 62/76/49
f 66/83/50 78/82/50 79/89/50 67/88/50
f 90/100/51 102/101/51 103/102/51 91/103/51
f 86/104/52 98/105/52 99/106/52 87/107/52
f 89/108/53 101/109/53 102/101/53 90/100/53
f 82/110/54 94/111/54 95/112/54 83/113/54
f 91/103/55 103/102/55 104/114/55 92/115/55
f 87/107/56 99/106/56 100/116/56 88/117/56
f 92/115/57 104/114/57 94/111/57 82/110/57
f 83/113/58 95/112/58 96/118/58 84/119/58
f 85/120/59 97/121/59 105/122/59 93/123/59
f 88/117/60 100/116/60 101/109/60 89/108/60
f 84/119/61 96/118/61 97/121/61 85/120/61
f 93/123/62 105/122/62 98/105/62 86/104/62
f 108/124/63 120/125/63 121/126/63 109/127/63
f 122/128/6 129/129/6 121/130/6 120/131/6 119/132/6 118/133/6 128/134/6 127/135/6 126/136/6 125/137/6 124/138/6 123/139/6
f 117/140/64 129/141/64 122/142/64 110/143/64
f 114/144/65 126/145/65 127/146/65 115/147/65
f 110/143/66 122/142/66 123/148/66 111/149/66
f 113/150/67 125/151/67 126/145/67 114/144/67
f 106/152/68 118/153/68 119/154/68 107/155/68
f 115/147/69 127/146/69 128/156/69 116/157/69
f 111/149/70 123/148/70 124/158/70 112/159/70
f 116/157/71 128/156/71 118/153/71 106/152/71
f 107/155/72 119/154/72 120/125/72 108/124/72
f 109/127/73 121/126/73 129/141/73 117/140/73
f 112/159/74 124/158/74 125/151/74 113/150/74
usemtl White
f 50/75/75 62/76/75 63/79/75 51/70/75
f 53/66/76 65/80/76 66/83/76 54/67/76
f 46/72/77 58/84/77 59/87/77 47/73/77
f 55/64/78 67/88/78 68/91/78 56/65/78
f 51/70/79 63/79/79 64/93/79 52/71/79
f 56/65/80 68/91/80 58/84/80 46/72/80
f 47/73/81 59/87/81 60/95/81 48/68/81
f 49/69/82 61/96/82 69/99/82 57/74/82
f 52/71/83 64/93/83 65/80/83 53/66/83
f 48/68/84 60/95/84 61/96/84 49/69/84
f 57/74/85 69/99/85 62/76/85 50/75/85
f 54/67/86 66/83/86 67/88/86 55/64/86
f 78/82/87 90/100/87 91/103/87 79/89/87
f 74/77/88 86/104/88 87/107/88 75/78/88
f 77/81/89 89/108/89 90/100/89 78/82/89
f 70/85/90 82/110/90 83/113/90 71/86/90
f 79/89/91 91/103/91 92/115/91 80/90/91
f 75/78/92 87/107/92 88/117/92 76/92/92
f 80/90/93 92/115/93 82/110/93 70/85/93
f 71/86/94 83/113/94 84/119/94 72/94/94
f 73/97/95 85/120/95 93/123/95 81/98/95
f 76/92/96 88/117/96 89/108/96 77/81/96
f 72/94/97 84/119/97 85/120/97 73/97/97
f 81/98/98 93/123/98 86/104/98 74/77/98
f 105/122/99 117/140/99 110/143/99 98/105/99
f 102/101/100 114/144/100 115/147/100 103/102/100
f 98/105/101 110/143/101 111/149/101 99/106/101
f 101/109/102 113/150/102 114/144/102 102/101/102
f 94/111/103 106/152/103 107/155/103 95/112/103
f 103/102/104 115/147/104 116/157/104 104/114/104
f 99/106/105 111/149/105 112/159/105 100/116/105
f 104/114/106 116/157/106 106/152/106 94/111/106
f 95/112/107 107/155/107 108/124/107 96/118/107
f 97/121/108 109/127/108 117/140/108 105/122/108
f 100/116/109 112/159/109 113/150/109 101/109/109
f 96/118/110 108/124/110 109/127/110 97/121/110
