# Blender v2.82 (sub 7) OBJ File: 'StreetLamp.blend'
# www.blender.org
mtllib StreetLamp.mtl
o Cylinder
v 0.017101 -0.008407 -0.101775
v -0.017101 3.308165 -0.101775
v 0.104114 -0.008407 -0.024136
v 0.075122 3.308165 -0.070763
v 0.100989 3.308165 0.012828
v 0.072959 -0.008407 0.069416
v 0.062339 3.308165 0.080481
v 0.012828 -0.008407 0.100989
v -0.002505 3.308165 0.100674
v -0.062339 -0.008407 0.080481
v -0.066773 3.308165 0.076842
v -0.103156 -0.008407 0.003083
v -0.101551 3.308165 0.007120
v -0.082316 3.308165 -0.058014
v -0.066773 -0.008407 -0.076842
v -0.017101 3.509400 0.001034
v 0.075122 3.490355 0.025510
v 0.100989 3.439020 0.091481
v 0.062339 3.397474 0.144874
v -0.002505 3.385073 0.160811
v -0.066773 3.399709 0.142002
v -0.101551 3.442526 0.086976
v -0.082316 3.482526 0.035571
v -0.017101 3.631541 0.190862
v 0.075122 3.600755 0.194607
v 0.100989 3.517775 0.204699
v 0.062339 3.450618 0.212867
v -0.002505 3.430572 0.215305
v -0.066773 3.454230 0.212427
v -0.101551 3.523442 0.204010
v -0.082316 3.588100 0.196146
v -0.017101 3.672918 0.328727
v 0.075122 3.641981 0.326572
v 0.100989 3.558592 0.320761
v 0.062339 3.491103 0.316058
v -0.002505 3.470958 0.314654
v -0.066773 3.494733 0.316311
v -0.101551 3.564286 0.321158
v -0.082316 3.629263 0.325685
v -0.017101 3.674817 0.427670
v 0.075122 3.643879 0.425514
v 0.100989 3.560491 0.419703
v 0.062339 3.493002 0.415001
v -0.002505 3.472857 0.413597
v -0.066773 3.496632 0.415254
v -0.101551 3.566185 0.420100
v -0.082316 3.631162 0.424628
vt 0.869810 1.000000
vt 0.785833 0.500000
vt 0.965806 0.500000
vt 0.628903 0.500000
vt 0.729831 1.000000
vt 0.604831 1.000000
vt 0.519960 0.500000
vt 0.152152 1.000000
vt 0.113919 0.500000
vt 0.254601 0.500000
vt 0.036551 1.000000
vt 0.018433 0.500000
vt 0.988143 1.000000
vt 0.395169 0.500000
vt 0.496097 1.000000
vt 0.386081 1.000000
vt 0.261081 1.000000
vt 0.604831 1.000000
vt 0.496097 1.000000
vt 0.779417 0.017341
vt 0.606625 0.064682
vt 0.519117 0.243240
vt 0.596214 0.426774
vt 0.787532 0.477582
vt 0.966378 0.299590
vt 0.921773 0.086497
vt 0.261081 1.000000
vt 0.386081 1.000000
vt 0.386081 1.000000
vt 0.261081 1.000000
vt 0.152152 1.000000
vt 0.869810 1.000000
vt 0.729831 1.000000
vt 0.988143 1.000000
vt 0.036551 1.000000
vt 0.604831 1.000000
vt 0.729831 1.000000
vt 0.729831 1.000000
vt 0.604831 1.000000
vt 0.869810 1.000000
vt 0.496097 1.000000
vt 0.152152 1.000000
vt 0.988143 1.000000
vt 0.036551 1.000000
vt 0.152152 1.000000
vt 0.261081 1.000000
vt 0.261081 1.000000
vt 0.152152 1.000000
vt 0.036551 1.000000
vt 0.386081 1.000000
vt 0.869810 1.000000
vt 0.496097 1.000000
vt 0.988143 1.000000
vt 0.096213 0.073226
vt 0.244152 0.012924
vt 0.393375 0.064682
vt 0.482421 0.220342
vt 0.418376 0.407645
vt 0.212288 0.477795
vt 0.056574 0.386627
vt 0.016259 0.233746
vt 0.496097 1.000000
vt 0.386081 1.000000
vt 0.988143 1.000000
vt 0.869810 1.000000
vt 0.729831 1.000000
vt 0.604831 1.000000
vt 0.036551 1.000000
vn 0.6658 -0.0047 -0.7461
vn 0.9177 -0.0010 0.3974
vn 0.4649 -0.0015 0.8854
vn -0.9101 -0.0019 -0.4143
vn -0.2849 -0.0029 -0.9585
vn 0.3187 0.0033 -0.9478
vn 0.9553 0.0042 -0.2956
vn -0.3030 -0.0003 0.9530
vn 0.2973 0.0015 0.9548
vn -0.8895 -0.0004 0.4570
vn -0.9591 0.0008 -0.2832
vn -0.5572 0.0021 -0.8304
vn 0.2699 -0.5773 0.7706
vn 0.0000 -1.0000 -0.0000
vn -0.8786 -0.3871 0.2797
vn -0.9531 0.1482 -0.2638
vn 0.9489 0.1539 -0.2754
vn -0.8788 -0.2578 0.4015
vn 0.8489 -0.2880 0.4432
vn 0.3001 0.4396 -0.8466
vn -0.3169 -0.5661 0.7610
vn -0.5315 0.3925 -0.7506
vn 0.8550 -0.4862 0.1803
vn 0.9479 0.2647 -0.1773
vn 0.2730 -0.7493 0.6034
vn -0.9522 0.2536 -0.1703
vn -0.3202 -0.7395 0.5921
vn 0.2960 0.8016 -0.5194
vn 0.8488 -0.4274 0.3111
vn -0.5260 0.7132 -0.4635
vn -0.9587 0.2842 -0.0055
vn -0.5409 0.8037 -0.2481
vn -0.8839 -0.4389 0.1615
vn 0.9511 0.2933 -0.0970
vn 0.2792 -0.8918 0.3561
vn -0.9551 0.2810 -0.0934
vn -0.3273 -0.8779 0.3494
vn 0.3069 0.9100 -0.2786
vn 0.0000 -0.0695 0.9976
vn -0.3465 -0.9379 0.0180
vn 0.3176 0.9480 -0.0182
vn 0.8674 -0.4974 0.0095
vn -0.5557 0.8312 -0.0160
vn -0.8941 -0.4477 0.0086
vn 0.9550 0.2966 -0.0057
vn 0.2963 -0.9549 0.0183
usemtl Gray
s off
f 4/1/1 3/2/1 1/3/1
f 6/4/2 3/2/2 5/5/2 7/6/2
f 7/6/3 8/7/3 6/4/3
f 14/8/4 15/9/4 12/10/4
f 2/11/5 1/12/5 15/9/5
f 2/13/6 4/1/6 1/3/6
f 4/1/7 5/5/7 3/2/7
f 10/14/8 8/7/8 9/15/8 11/16/8
f 7/6/9 9/15/9 8/7/9
f 12/10/10 10/14/10 11/16/10 13/17/10
f 13/17/11 14/8/11 12/10/11
f 14/8/12 2/11/12 15/9/12
f 9/15/13 7/6/13 19/18/13 20/19/13
f 8/20/14 10/21/14 12/22/14 15/23/14 1/24/14 3/25/14 6/26/14
f 22/27/15 21/28/15 29/29/15 30/30/15
f 14/8/16 13/17/16 22/27/16 23/31/16
f 5/5/17 4/1/17 17/32/17 18/33/17
f 13/17/18 11/16/18 21/28/18 22/27/18
f 7/6/19 5/5/19 18/33/19 19/18/19
f 4/1/20 2/13/20 16/34/20 17/32/20
f 11/16/21 9/15/21 20/19/21 21/28/21
f 2/11/22 14/8/22 23/31/22 16/35/22
f 27/36/23 26/37/23 34/38/23 35/39/23
f 18/33/24 17/32/24 25/40/24 26/37/24
f 20/19/25 19/18/25 27/36/25 28/41/25
f 23/31/26 22/27/26 30/30/26 31/42/26
f 21/28/27 20/19/27 28/41/27 29/29/27
f 17/32/28 16/34/28 24/43/28 25/40/28
f 19/18/29 18/33/29 26/37/29 27/36/29
f 16/35/30 23/31/30 31/42/30 24/44/30
f 39/45/31 38/46/31 46/47/31 47/48/31
f 24/44/32 31/42/32 39/45/32 32/49/32
f 30/30/33 29/29/33 37/50/33 38/46/33
f 26/37/34 25/40/34 33/51/34 34/38/34
f 28/41/35 27/36/35 35/39/35 36/52/35
f 31/42/36 30/30/36 38/46/36 39/45/36
f 29/29/37 28/41/37 36/52/37 37/50/37
f 25/40/38 24/43/38 32/53/38 33/51/38
f 45/54/39 44/55/39 43/56/39 42/57/39 41/58/39 40/59/39 47/60/39 46/61/39
f 37/50/40 36/52/40 44/62/40 45/63/40
f 33/51/41 32/53/41 40/64/41 41/65/41
f 35/39/42 34/38/42 42/66/42 43/67/42
f 32/49/43 39/45/43 47/48/43 40/68/43
f 38/46/44 37/50/44 45/63/44 46/47/44
f 34/38/45 33/51/45 41/65/45 42/66/45
f 36/52/46 35/39/46 43/67/46 44/62/46
o Cube_Cube.002
v -0.200000 3.456097 1.048856
v -0.200000 3.696097 1.048856
v -0.200000 3.456097 0.248856
v -0.200000 3.696097 0.248856
v 0.200000 3.456097 1.048856
v 0.200000 3.696097 1.048856
v 0.200000 3.456097 0.248856
v 0.200000 3.696097 0.248856
vt 0.375000 0.000000
vt 0.625000 0.000000
vt 0.625000 0.250000
vt 0.375000 0.250000
vt 0.625000 0.500000
vt 0.375000 0.500000
vt 0.625000 0.750000
vt 0.375000 0.750000
vt 0.625000 1.000000
vt 0.375000 1.000000
vt 0.125000 0.500000
vt 0.125000 0.750000
vt 0.875000 0.500000
vt 0.875000 0.750000
vn -1.0000 0.0000 0.0000
vn 0.0000 0.0000 -1.0000
vn 1.0000 0.0000 0.0000
vn 0.0000 0.0000 1.0000
vn 0.0000 -1.0000 0.0000
vn 0.0000 1.0000 0.0000
usemtl DarkGray
s off
f 48/69/47 49/70/47 51/71/47 50/72/47
f 50/72/48 51/71/48 55/73/48 54/74/48
f 54/74/49 55/73/49 53/75/49 52/76/49
f 52/76/50 53/75/50 49/77/50 48/78/50
f 50/79/51 54/74/51 52/76/51 48/80/51
f 55/73/52 51/81/52 49/82/52 53/75/52
o Light.001_Cube.003
v -0.166817 3.415296 0.982490
v -0.166817 3.615477 0.982490
v -0.166817 3.415296 0.315222
v -0.166817 3.615477 0.315222
v 0.166817 3.415296 0.982490
v 0.166817 3.615477 0.982490
v 0.166817 3.415296 0.315222
v 0.166817 3.615477 0.315222
vt 0.375000 0.000000
vt 0.625000 0.000000
vt 0.625000 0.250000
vt 0.375000 0.250000
vt 0.625000 0.500000
vt 0.375000 0.500000
vt 0.625000 0.750000
vt 0.375000 0.750000
vt 0.625000 1.000000
vt 0.375000 1.000000
vt 0.125000 0.500000
vt 0.125000 0.750000
vt 0.875000 0.500000
vt 0.875000 0.750000
vn -1.0000 0.0000 0.0000
vn 0.0000 0.0000 -1.0000
vn 1.0000 0.0000 0.0000
vn 0.0000 0.0000 1.0000
vn 0.0000 -1.0000 0.0000
vn 0.0000 1.0000 0.0000
usemtl Light
s off
f 56/83/53 57/84/53 59/85/53 58/86/53
f 58/86/54 59/85/54 63/87/54 62/88/54
f 62/88/55 63/87/55 61/89/55 60/90/55
f 60/90/56 61/89/56 57/91/56 56/92/56
f 58/93/57 62/88/57 60/90/57 56/94/57
f 63/87/58 59/95/58 57/96/58 61/89/58
