# Blender v2.82 (sub 7) OBJ File: 'Trash.blend'
# www.blender.org
mtllib Trash.mtl
o Cylinder
v 0.218130 -0.566869 -0.566736
v 0.190784 1.032935 -0.628931
v 0.496106 -0.566868 -0.350293
v 0.501406 1.033098 -0.411770
v 0.622952 1.033108 -0.177102
v 0.612386 -0.566867 0.042936
v 0.643305 1.033103 0.074773
v 0.439964 -0.566867 0.418602
v 0.533480 1.033043 0.375984
v 0.077359 -0.566867 0.608996
v 0.234686 1.033043 0.609005
v -0.063384 1.033111 0.643542
v -0.375924 -0.566867 0.485326
v -0.305846 1.033106 0.572196
v -0.507757 1.033103 0.402013
v -0.573492 -0.566867 0.185010
v -0.600637 -0.566867 -0.048540
v -0.643091 1.033052 0.111366
v -0.513175 -0.566867 -0.324727
v -0.616356 1.033103 -0.198839
v -0.493348 1.033108 -0.419574
v -0.194682 -0.566867 -0.582202
v -0.234687 1.033052 -0.609008
v 0.000000 1.033133 -0.589278
v 0.114963 1.033133 -0.577956
v 0.225507 1.033133 -0.544422
v 0.327386 1.033133 -0.489967
v 0.417504 1.033144 -0.416273
v 0.489967 1.033133 -0.327386
v 0.544422 1.033133 -0.225507
v 0.577956 1.033133 -0.114963
v 0.589278 1.033133 -0.000000
v 0.577956 1.033133 0.114962
v 0.544422 1.033133 0.225507
v 0.489967 1.033133 0.327386
v 0.416683 1.033133 0.416683
v 0.327386 1.033133 0.489967
v 0.225507 1.033133 0.544422
v 0.114962 1.033133 0.577956
v -0.000000 1.033133 0.589278
v -0.114963 1.033133 0.577956
v -0.225507 1.033133 0.544422
v -0.327386 1.033133 0.489967
v -0.416683 1.033133 0.416683
v -0.489967 1.033133 0.327385
v -0.544423 1.033133 0.225507
v -0.577956 1.033133 0.114962
v -0.589278 1.033133 -0.000001
v -0.577956 1.033133 -0.114963
v -0.544422 1.033133 -0.225508
v -0.489967 1.033133 -0.327386
v -0.416682 1.033133 -0.416683
v -0.327385 1.033133 -0.489968
v -0.225506 1.033133 -0.544423
v -0.114962 1.033133 -0.577956
v 0.000000 -0.414109 -0.548289
v 0.106966 -0.414109 -0.537754
v 0.209821 -0.414109 -0.506553
v 0.304613 -0.414109 -0.455886
v 0.388521 -0.414098 -0.387289
v 0.455886 -0.414109 -0.304613
v 0.506553 -0.414109 -0.209821
v 0.537754 -0.414109 -0.106966
v 0.548289 -0.414109 -0.000000
v 0.537754 -0.414109 0.106966
v 0.506553 -0.414109 0.209821
v 0.455886 -0.414109 0.304613
v 0.387699 -0.414109 0.387699
v 0.304613 -0.414109 0.455886
v 0.209821 -0.414109 0.506553
v 0.106966 -0.414109 0.537754
v -0.000000 -0.414109 0.548289
v -0.106966 -0.414109 0.537754
v -0.209822 -0.414109 0.506553
v -0.304614 -0.414109 0.455886
v -0.387699 -0.414109 0.387699
v -0.455886 -0.414109 0.304613
v -0.506554 -0.414109 0.209821
v -0.537754 -0.414109 0.106965
v -0.548289 -0.414109 -0.000001
v -0.537754 -0.414109 -0.106967
v -0.506553 -0.414109 -0.209822
v -0.455886 -0.414109 -0.304614
v -0.387699 -0.414109 -0.387700
v -0.304613 -0.414109 -0.455886
v -0.209821 -0.414109 -0.506554
v -0.106965 -0.414109 -0.537754
v 0.000000 -0.324673 -0.600000
v 0.117054 -0.324673 -0.588471
v 0.229610 -0.324673 -0.554328
v 0.333342 -0.324673 -0.498882
v 0.425086 -0.324662 -0.423854
v 0.498882 -0.324673 -0.333342
v 0.554328 -0.324673 -0.229610
v 0.588471 -0.324673 -0.117054
v 0.600000 -0.324673 -0.000000
v 0.588471 -0.324673 0.117054
v 0.554328 -0.324673 0.229610
v 0.498882 -0.324673 0.333342
v 0.424264 -0.324673 0.424264
v 0.333342 -0.324673 0.498882
v 0.229610 -0.324673 0.554328
v 0.117054 -0.324673 0.588471
v -0.000000 -0.324673 0.600000
v -0.117054 -0.324673 0.588471
v -0.229610 -0.324673 0.554328
v -0.333342 -0.324673 0.498882
v -0.424264 -0.324673 0.424264
v -0.498882 -0.324673 0.333342
v -0.554328 -0.324673 0.229610
v -0.588471 -0.324673 0.117054
v -0.600000 -0.324673 -0.000001
v -0.588471 -0.324673 -0.117055
v -0.554327 -0.324673 -0.229611
v -0.498881 -0.324673 -0.333343
v -0.424264 -0.324673 -0.424265
v -0.333341 -0.324673 -0.498882
v -0.229609 -0.324673 -0.554328
v -0.117053 -0.324673 -0.588471
v 0.000000 0.876369 -0.600000
v 0.117054 0.876369 -0.588471
v 0.229610 0.876369 -0.554328
v 0.333342 0.876369 -0.498882
v 0.425086 0.876381 -0.423854
v 0.498882 0.876369 -0.333342
v 0.554328 0.876369 -0.229610
v 0.588471 0.876369 -0.117054
v 0.600000 0.876369 -0.000000
v 0.588471 0.876369 0.117054
v 0.554328 0.876369 0.229610
v 0.498882 0.876369 0.333342
v 0.424264 0.876369 0.424264
v 0.333342 0.876369 0.498882
v 0.229610 0.876369 0.554328
v 0.117054 0.876369 0.588471
v -0.000000 0.876369 0.600000
v -0.117054 0.876369 0.588471
v -0.229610 0.876369 0.554328
v -0.333342 0.876369 0.498882
v -0.424264 0.876369 0.424264
v -0.498882 0.876369 0.333342
v -0.554328 0.876369 0.229610
v -0.588471 0.876369 0.117054
v -0.600000 0.876369 -0.000001
v -0.588471 0.876369 -0.117055
v -0.554327 0.876369 -0.229611
v -0.498881 0.876369 -0.333343
v -0.424264 0.876369 -0.424265
v -0.333341 0.876369 -0.498882
v -0.229609 0.876369 -0.554328
v -0.117053 0.876369 -0.588471
vt 0.953145 1.000000
vt 0.968750 0.951012
vt 1.000000 0.951012
vt 0.937500 0.951012
vt 0.906250 0.951012
vt 0.875000 0.951011
vt 0.859428 1.000000
vt 0.843750 0.951012
vt 0.794067 1.000000
vt 0.781250 0.951012
vt 0.812500 0.951011
vt 0.731567 1.000000
vt 0.718750 0.951012
vt 0.750000 0.951012
vt 0.652153 1.000000
vt 0.656250 0.951012
vt 0.687500 0.951012
vt 0.625000 0.951012
vt 0.558403 1.000000
vt 0.562500 0.951012
vt 0.593750 0.951012
vt 0.531250 0.951012
vt 0.484375 1.000000
vt 0.468750 0.951012
vt 0.500000 0.951012
vt 0.421875 1.000000
vt 0.406250 0.951012
vt 0.437500 0.951012
vt 0.356567 1.000000
vt 0.343750 0.951012
vt 0.375000 0.951012
vt 0.312500 0.951012
vt 0.277345 1.000000
vt 0.281250 0.951012
vt 0.250000 0.951012
vt 0.218750 0.951012
vt 0.200317 1.000000
vt 0.187500 0.951012
vt 0.156250 0.951012
vt 0.137817 1.000000
vt 0.125000 0.951012
vt 0.093750 0.951012
vt 0.058595 1.000000
vt 0.062500 0.951012
vt 0.031250 0.951012
vt 0.312500 1.000000
vt 0.281250 1.000000
vt 0.156250 1.000000
vt 0.125000 1.000000
vt 0.250000 1.000000
vt 0.375000 1.000000
vt 0.343750 1.000000
vt 0.093750 1.000000
vt 0.062500 1.000000
vt 0.218750 1.000000
vt 0.187500 1.000000
vt 0.031250 1.000000
vt 0.875000 1.000000
vt 0.843750 1.000000
vt 0.000000 0.951012
vt 0.000000 1.000000
vt 0.593750 1.000000
vt 0.562500 1.000000
vt 0.593750 1.000000
vt 0.625000 1.000000
vt 0.625000 1.000000
vt 0.779417 0.017341
vt 0.606625 0.064682
vt 0.522667 0.176622
vt 0.511891 0.269204
vt 0.549629 0.376851
vt 0.675568 0.472169
vt 0.835234 0.471313
vt 0.943731 0.386733
vt 0.983742 0.233745
vt 0.921773 0.086497
vt 0.000000 1.000000
vt 1.000000 1.000000
vt 0.968750 1.000000
vt 0.718750 1.000000
vt 0.687500 1.000000
vt 0.812500 1.000000
vt 0.437500 1.000000
vt 0.406250 1.000000
vt 0.531250 1.000000
vt 0.937500 1.000000
vt 0.656250 1.000000
vt 0.500000 1.000000
vt 0.781250 1.000000
vt 0.750000 1.000000
vt 0.906250 1.000000
vt 0.468750 1.000000
vt 0.187500 1.000000
vt 0.156250 1.000000
vt 0.158156 0.028269
vt 0.203178 0.014612
vt 0.250000 0.010000
vt 0.296822 0.014612
vt 0.341844 0.028269
vt 0.383337 0.050447
vt 0.419706 0.080294
vt 0.449553 0.116663
vt 0.471731 0.158156
vt 0.485388 0.203178
vt 0.490000 0.250000
vt 0.485388 0.296822
vt 0.471731 0.341844
vt 0.449553 0.383337
vt 0.419706 0.419706
vt 0.383337 0.449553
vt 0.341844 0.471731
vt 0.296822 0.485388
vt 0.250000 0.490000
vt 0.203179 0.485389
vt 0.158156 0.471731
vt 0.116663 0.449553
vt 0.080295 0.419706
vt 0.050447 0.383337
vt 0.028269 0.341844
vt 0.014612 0.296822
vt 0.010000 0.250000
vt 0.014611 0.203179
vt 0.028269 0.158156
vt 0.050447 0.116663
vt 0.080294 0.080294
vt 0.116663 0.050447
vt 0.031250 1.000000
vt 0.031250 0.575686
vt 0.968750 1.000000
vt 1.000000 1.000000
vt 0.531250 1.000000
vt 0.562500 1.000000
vt 0.093750 1.000000
vt 0.125000 1.000000
vt 0.937500 1.000000
vt 0.906250 1.000000
vt 0.468750 1.000000
vt 0.500000 1.000000
vt 0.062500 1.000000
vt 0.875000 1.000000
vt 0.843750 1.000000
vt 0.437500 1.000000
vt 0.406250 1.000000
vt 0.781250 1.000000
vt 0.812500 1.000000
vt 0.343750 1.000000
vt 0.375000 1.000000
vt 0.781250 0.575686
vt 0.718750 1.000000
vt 0.750000 1.000000
vt 0.281250 1.000000
vt 0.312500 1.000000
vt 0.812500 0.575686
vt 0.656250 1.000000
vt 0.687500 1.000000
vt 0.218750 1.000000
vt 0.250000 1.000000
vt 0.937500 0.575686
vt 0.051419 0.500000
vt 0.160153 0.500000
vt 0.125000 0.575686
vt 0.093750 0.575686
vt 0.000000 0.575686
vt 0.062500 0.575686
vt 0.237183 0.500000
vt 0.218750 0.575686
vt 0.187500 0.575686
vt 0.156250 0.575686
vt 0.299683 0.500000
vt 0.281250 0.575686
vt 0.250000 0.575686
vt 0.395169 0.500000
vt 0.343750 0.575686
vt 0.312500 0.575686
vt 0.519960 0.500000
vt 0.468750 0.575686
vt 0.437500 0.575686
vt 0.375000 0.575686
vt 0.406250 0.575686
vt 0.628903 0.500000
vt 0.593750 0.575686
vt 0.562500 0.575686
vt 0.500000 0.575686
vt 0.531250 0.575686
vt 0.738919 0.500000
vt 0.687500 0.575686
vt 0.656250 0.575686
vt 0.625000 0.575686
vt 0.847793 0.500000
vt 0.718750 0.575686
vt 0.750000 0.575686
vt 0.941469 0.500000
vt 0.906250 0.575686
vt 0.875000 0.575686
vt 0.843750 0.575686
vt 1.000000 0.500000
vt 1.000000 0.575686
vt 0.968750 0.575686
vn 0.0938 -0.2903 -0.9523
vn 0.2710 -0.3585 -0.8933
vn 0.4511 -0.2903 -0.8439
vn 0.7363 -0.3123 -0.6003
vn 0.9110 -0.3063 -0.2763
vn 0.9474 -0.3063 0.0933
vn 0.8392 -0.3074 0.4486
vn 0.7311 -0.3248 0.6000
vn 0.4486 -0.3074 0.8392
vn 0.2746 -0.3248 0.9051
vn -0.0935 -0.3014 0.9489
vn -0.4477 -0.3132 0.8375
vn -0.7359 -0.3063 0.6039
vn -0.9106 -0.3074 0.2762
vn -0.9412 -0.3248 0.0927
vn -0.9110 -0.3063 -0.2763
vn -0.7359 -0.3063 -0.6039
vn -0.4486 -0.3074 -0.8392
vn -0.2746 -0.3248 -0.9051
vn -0.0013 1.0000 0.0004
vn -0.0003 1.0000 -0.0003
vn -0.0012 1.0000 0.0001
vn -0.0004 1.0000 0.0003
vn -0.0006 1.0000 -0.0012
vn -0.0005 1.0000 -0.0001
vn -0.0004 1.0000 -0.0012
vn 0.0006 1.0000 -0.0003
vn 0.8618 -0.2329 -0.4507
vn 0.9681 -0.2363 -0.0837
vn 0.9240 -0.2070 0.3215
vn 0.6102 -0.1731 0.7731
vn 0.1076 -0.2170 0.9702
vn -0.2767 -0.2366 0.9314
vn -0.6237 -0.2330 0.7461
vn -0.8807 -0.2070 0.4261
vn -0.9733 -0.2122 -0.0872
vn -0.8514 -0.2363 -0.4683
vn -0.5897 -0.2070 -0.7807
vn -0.0573 -0.1427 -0.9881
vn 0.0007 1.0000 0.0013
vn 0.5783 -0.1776 -0.7963
vn -0.6341 0.0282 -0.7727
vn -0.0000 -1.0000 0.0000
vn -0.0000 1.0000 -0.0039
vn 0.0003 1.0000 -0.0034
vn 0.0011 1.0000 0.0005
vn 0.0005 1.0000 -0.0003
vn -0.0002 1.0000 0.0004
vn -0.0004 1.0000 0.0004
vn 0.0004 1.0000 0.0013
vn 0.0008 1.0000 -0.0027
vn 0.0013 1.0000 0.0007
vn -0.0005 1.0000 -0.0009
vn 0.0003 1.0000 0.0011
vn 0.0004 1.0000 -0.0001
vn -0.0012 1.0000 0.0000
vn 0.0006 1.0000 -0.0000
vn 0.0016 1.0000 -0.0030
vn 0.0011 1.0000 0.0009
vn 0.0012 1.0000 -0.0023
vn -0.0000 1.0000 0.0004
vn 0.0014 1.0000 0.0018
vn -0.0011 1.0000 0.0004
vn -0.0002 1.0000 0.0005
vn 0.0005 1.0000 0.0000
vn -0.0005 1.0000 -0.0003
vn 0.8816 0.0282 0.4712
vn -0.0000 1.0000 0.0000
vn 0.9808 0.0000 -0.1951
vn -0.0980 0.0282 0.9948
vn -0.2902 0.0282 -0.9566
vn 0.6341 0.0282 0.7727
vn -0.4712 0.0282 0.8816
vn 0.0980 0.0282 -0.9948
vn 0.2902 0.0282 0.9566
vn -0.7748 0.0282 0.6315
vn 0.4712 0.0282 -0.8816
vn -0.9566 0.0282 0.2902
vn 0.7727 0.0282 -0.6341
vn 0.1951 0.0000 0.9808
vn -0.9948 0.0282 -0.0980
vn 0.9566 0.0282 -0.2902
vn -0.3827 -0.0000 -0.9239
vn -0.8816 0.0282 -0.4712
vn 0.9948 0.0282 0.0980
vn -0.9239 0.0000 -0.3827
vn -0.6274 -0.0903 -0.7735
vn -0.0980 0.0057 -0.9952
vn -0.2896 0.0681 -0.9547
vn -0.4711 0.0335 -0.8814
vn -0.9536 -0.0407 -0.2983
vn -0.7728 0.0230 -0.6342
vn -0.8814 0.0353 -0.4711
vn -0.9937 -0.0250 0.1096
vn -0.9949 0.0223 -0.0980
vn -0.8458 -0.0638 0.5296
vn -0.9567 0.0223 0.2902
vn -0.2666 -0.1222 0.9560
vn -0.7730 0.0057 0.6344
vn -0.6329 0.0681 0.7712
vn -0.4711 0.0335 0.8814
vn 0.4644 -0.0903 0.8810
vn -0.0980 0.0057 0.9952
vn 0.0978 0.0681 0.9929
vn 0.2901 0.0335 0.9564
vn 0.8994 -0.0911 0.4275
vn 0.6342 0.0230 0.7728
vn 0.7725 0.0353 0.6340
vn 0.9546 -0.0906 -0.2839
vn 0.9569 0.0057 0.2903
vn 0.9929 0.0681 0.0978
vn 0.9946 0.0335 -0.0980
vn 0.6178 -0.0656 -0.7836
vn 0.8817 0.0229 -0.4713
vn 0.7746 0.0353 -0.6315
vn 0.0507 -0.0910 -0.9946
vn 0.4713 0.0228 -0.8817
vn 0.2901 0.0352 -0.9563
vn -0.2903 0.0000 -0.9569
vn -0.6344 0.0000 -0.7730
vn -0.8819 0.0000 -0.4714
vn -0.9952 0.0000 -0.0980
vn -0.9569 0.0000 0.2903
vn -0.7730 0.0000 0.6344
vn -0.4714 0.0000 0.8819
vn -0.0980 0.0000 0.9952
vn 0.2903 0.0000 0.9569
vn -1.0000 0.0000 0.0000
vn 0.6344 0.0000 0.7730
vn 0.9808 0.0000 0.1951
vn 0.8819 0.0000 0.4714
vn 0.5556 -0.0000 0.8315
vn 0.9952 0.0000 0.0980
vn 0.0000 -0.0000 -1.0000
vn 0.9569 0.0000 -0.2903
vn 0.7750 0.0000 -0.6319
vn 0.4714 0.0000 -0.8819
vn 0.0980 0.0000 -0.9952
vn 0.8315 -0.0000 0.5556
vn -0.7071 -0.0000 -0.7071
vn -0.9239 0.0000 0.3827
vn 0.8315 0.0000 -0.5556
vn -0.7071 0.0000 0.7071
vn 0.5556 -0.0000 -0.8315
vn -0.3827 -0.0000 0.9239
vn 0.1951 0.0000 -0.9808
vn -0.0000 0.0000 1.0000
vn -0.1951 0.0000 -0.9808
vn 0.3827 0.0000 0.9239
vn -0.5556 0.0000 -0.8315
vn 0.7071 0.0000 0.7071
vn -0.8315 0.0000 -0.5556
vn 0.9239 -0.0000 0.3827
vn -0.9808 0.0000 0.1951
vn -0.9808 0.0000 -0.1951
vn 0.9239 -0.0000 -0.3827
vn -0.8315 -0.0000 0.5556
vn 0.7071 0.0000 -0.7071
vn -0.5556 0.0000 0.8315
vn 0.3827 -0.0000 -0.9239
vn -0.1951 -0.0000 0.9808
vn -0.8626 0.4987 0.0850
vn -0.7644 0.4987 0.4086
vn -0.5487 0.4987 0.6710
vn -0.2516 0.4987 0.8294
vn 0.0850 0.4987 0.8626
vn 0.4086 0.4987 0.7644
vn 0.6700 0.4987 0.5499
vn 0.8294 0.4987 0.2516
vn 0.8626 0.4987 -0.0850
vn 0.7644 0.4987 -0.4086
vn 0.5499 0.4987 -0.6700
vn 0.2516 0.4987 -0.8294
vn 1.0000 -0.0000 0.0000
vn -0.0850 0.4987 -0.8626
vn -0.4086 0.4987 -0.7644
vn -0.6700 0.4987 -0.5499
vn -0.8294 0.4987 -0.2516
vn 0.8799 -0.0679 -0.4703
vn 0.6329 -0.0679 -0.7712
vn 0.2896 -0.0679 -0.9547
vn -0.0978 -0.0679 -0.9929
vn -0.4703 -0.0679 -0.8799
vn -0.7712 -0.0679 -0.6329
vn -0.9547 -0.0679 -0.2896
vn -0.9929 -0.0679 0.0978
vn -0.8799 -0.0679 0.4703
vn -0.6316 -0.0679 0.7723
vn -0.2896 -0.0679 0.9547
vn 0.0978 -0.0679 0.9929
vn 0.4703 -0.0679 0.8799
vn 0.7712 -0.0679 0.6329
vn 0.9547 -0.0679 0.2896
vn 0.9929 -0.0679 -0.0978
usemtl None
s off
f 2/1/1 121/2/1 120/3/1
f 2/1/2 122/4/2 121/2/2
f 2/1/3 123/5/3 122/4/3
f 124/6/4 4/7/4 125/8/4
f 5/9/5 127/10/5 126/11/5
f 7/12/6 129/13/6 128/14/6
f 9/15/7 131/16/7 130/17/7
f 9/15/8 132/18/8 131/16/8
f 11/19/9 134/20/9 133/21/9
f 11/19/10 135/22/10 134/20/10
f 12/23/11 137/24/11 136/25/11
f 14/26/12 139/27/12 138/28/12
f 15/29/13 141/30/13 140/31/13
f 142/32/14 18/33/14 143/34/14
f 143/34/15 18/33/15 144/35/15
f 145/36/16 20/37/16 146/38/16
f 147/39/17 21/40/17 148/41/17
f 149/42/18 23/43/18 150/44/18
f 150/44/19 23/43/19 151/45/19
f 18/33/20 46/46/20 47/47/20
f 21/40/21 51/48/21 52/49/21
f 18/33/22 47/47/22 48/50/22
f 15/29/23 44/51/23 45/52/23
f 23/43/24 53/53/24 54/54/24
f 20/37/25 49/55/25 50/56/25
f 23/43/26 54/54/26 55/57/26
f 4/7/27 28/58/27 29/59/27
f 126/11/28 125/8/28 4/7/28 5/9/28
f 128/14/29 127/10/29 5/9/29 7/12/29
f 130/17/30 129/13/30 7/12/30 9/15/30
f 133/21/31 132/18/31 9/15/31 11/19/31
f 136/25/32 135/22/32 11/19/32 12/23/32
f 14/26/33 138/28/33 137/24/33 12/23/33
f 140/31/34 139/27/34 14/26/34 15/29/34
f 142/32/35 141/30/35 15/29/35 18/33/35
f 145/36/36 144/35/36 18/33/36 20/37/36
f 147/39/37 146/38/37 20/37/37 21/40/37
f 149/42/38 148/41/38 21/40/38 23/43/38
f 120/60/39 151/45/39 23/43/39 2/61/39
f 11/19/40 37/62/40 38/63/40
f 4/7/41 124/6/41 123/5/41 2/1/41
f 69/64/42 37/62/42 36/65/42 68/66/42
f 10/67/43 13/68/43 16/69/43 17/70/43 19/71/43 22/72/43 1/73/43 3/74/43 6/75/43 8/76/43
f 24/77/44 2/61/44 23/43/44 55/57/44
f 2/1/45 24/78/45 25/79/45
f 33/80/46 34/81/46 9/15/46 7/12/46
f 30/82/47 5/9/47 4/7/47 29/59/47
f 14/26/48 42/83/48 43/84/48
f 44/51/49 15/29/49 14/26/49 43/84/49
f 11/19/50 38/63/50 39/85/50
f 2/1/51 25/79/51 26/86/51
f 9/15/52 34/81/52 35/87/52
f 52/49/53 53/53/53 23/43/53 21/40/53
f 39/85/54 40/88/54 12/23/54 11/19/54
f 5/9/55 30/82/55 31/89/55
f 49/55/56 20/37/56 18/33/56 48/50/56
f 32/90/57 7/12/57 5/9/57 31/89/57
f 2/1/58 26/86/58 27/91/58
f 9/15/59 35/87/59 36/65/59
f 27/91/60 28/58/60 4/7/60 2/1/60
f 12/23/61 40/88/61 41/92/61
f 36/65/62 37/62/62 11/19/62 9/15/62
f 45/52/63 46/46/63 18/33/63 15/29/63
f 41/92/64 42/83/64 14/26/64 12/23/64
f 7/12/65 32/90/65 33/80/65
f 50/56/66 51/48/66 21/40/66 20/37/66
f 82/93/67 83/94/67 51/48/67 50/56/67
f 74/95/68 73/96/68 72/97/68 71/98/68 70/99/68 69/100/68 68/101/68 67/102/68 66/103/68 65/104/68 64/105/68 63/106/68 62/107/68 61/108/68 60/109/68 59/110/68 58/111/68 57/112/68 56/113/68 87/114/68 86/115/68 85/116/68 84/117/68 83/118/68 82/119/68 81/120/68 80/121/68 79/122/68 78/123/68 77/124/68 76/125/68 75/126/68
f 151/45/69 55/57/69 87/127/69 119/128/69
f 57/129/70 25/79/70 24/78/70 56/130/70
f 71/131/71 39/85/71 38/63/71 70/132/71
f 85/133/72 53/53/72 52/49/72 84/134/72
f 58/135/73 59/136/73 27/91/73 26/86/73
f 73/137/74 41/92/74 40/88/74 72/138/74
f 87/127/75 55/57/75 54/54/75 86/139/75
f 60/140/76 61/141/76 29/59/76 28/58/76
f 74/142/77 75/143/77 43/84/77 42/83/77
f 63/144/78 31/89/78 30/82/78 62/145/78
f 77/146/79 45/52/79 44/51/79 76/147/79
f 127/10/80 31/89/80 63/144/80 95/148/80
f 65/149/81 33/80/81 32/90/81 64/150/81
f 79/151/82 47/47/82 46/46/82 78/152/82
f 126/11/83 94/153/83 62/145/83 30/82/83
f 67/154/84 35/87/84 34/81/84 66/155/84
f 81/156/85 49/55/85 48/50/85 80/157/85
f 122/4/86 90/158/86 58/135/86 26/86/86
f 22/159/87 19/160/87 116/161/87 117/162/87
f 119/128/88 88/163/88 22/159/88
f 118/164/89 119/128/89 22/159/89
f 117/162/90 118/164/90 22/159/90
f 19/160/91 17/165/91 113/166/91 114/167/91
f 115/168/92 116/161/92 19/160/92
f 114/167/93 115/168/93 19/160/93
f 17/165/94 16/169/94 111/170/94 112/171/94
f 112/171/95 113/166/95 17/165/95
f 16/169/96 13/172/96 109/173/96 110/174/96
f 110/174/97 111/170/97 16/169/97
f 13/172/98 10/175/98 105/176/98 106/177/98
f 108/178/99 109/173/99 13/172/99
f 107/179/100 108/178/100 13/172/100
f 106/177/101 107/179/101 13/172/101
f 10/175/102 8/180/102 101/181/102 102/182/102
f 104/183/103 105/176/103 10/175/103
f 103/184/104 104/183/104 10/175/104
f 102/182/105 103/184/105 10/175/105
f 8/180/106 6/185/106 98/186/106 99/187/106
f 100/188/107 101/181/107 8/180/107
f 99/187/108 100/188/108 8/180/108
f 6/185/109 3/189/109 94/153/109 95/148/109
f 97/190/110 98/186/110 6/185/110
f 96/191/111 97/190/111 6/185/111
f 95/148/112 96/191/112 6/185/112
f 3/189/113 1/192/113 91/193/113 92/194/113
f 93/195/114 94/153/114 3/189/114
f 92/194/115 93/195/115 3/189/115
f 1/192/116 22/196/116 88/197/116 89/198/116
f 90/158/117 91/193/117 1/192/117
f 89/198/118 90/158/118 1/192/118
f 119/128/119 118/164/119 150/44/119 151/45/119
f 117/162/120 116/161/120 148/41/120 149/42/120
f 115/168/121 114/167/121 146/38/121 147/39/121
f 113/166/122 112/171/122 144/35/122 145/36/122
f 111/170/123 110/174/123 142/32/123 143/34/123
f 109/173/124 108/178/124 140/31/124 141/30/124
f 107/179/125 106/177/125 138/28/125 139/27/125
f 105/176/126 104/183/126 136/25/126 137/24/126
f 103/184/127 102/182/127 134/20/127 135/22/127
f 56/130/128 24/78/128 120/3/128 88/197/128
f 101/181/129 100/188/129 132/18/129 133/21/129
f 121/2/130 25/79/130 57/129/130 89/198/130
f 99/187/131 98/186/131 130/17/131 131/16/131
f 125/8/132 29/59/132 61/141/132 93/195/132
f 97/190/133 96/191/133 128/14/133 129/13/133
f 128/14/134 96/191/134 64/150/134 32/90/134
f 95/148/135 94/153/135 126/11/135 127/10/135
f 125/8/136 93/195/136 92/194/136 124/6/136
f 91/193/137 90/158/137 122/4/137 123/5/137
f 89/198/138 88/197/138 120/3/138 121/2/138
f 123/5/139 27/91/139 59/136/139 91/193/139
f 124/6/140 92/194/140 60/140/140 28/58/140
f 150/44/141 118/164/141 86/139/141 54/54/141
f 149/42/142 53/53/142 85/133/142 117/162/142
f 148/41/143 116/161/143 84/134/143 52/49/143
f 147/39/144 51/48/144 83/94/144 115/168/144
f 146/38/145 114/167/145 82/93/145 50/56/145
f 145/36/146 49/55/146 81/156/146 113/166/146
f 144/35/147 112/171/147 80/157/147 48/50/147
f 143/34/148 47/47/148 79/151/148 111/170/148
f 142/32/149 110/174/149 78/152/149 46/46/149
f 141/30/150 45/52/150 77/146/150 109/173/150
f 140/31/151 108/178/151 76/147/151 44/51/151
f 139/27/152 43/84/152 75/143/152 107/179/152
f 138/28/153 106/177/153 74/142/153 42/83/153
f 135/22/154 39/85/154 71/131/154 103/184/154
f 137/24/155 41/92/155 73/137/155 105/176/155
f 134/20/156 102/182/156 70/132/156 38/63/156
f 133/21/157 37/62/157 69/64/157 101/181/157
f 132/18/158 100/188/158 68/66/158 36/65/158
f 131/16/159 35/87/159 67/154/159 99/187/159
f 130/17/160 98/186/160 66/155/160 34/81/160
f 129/13/161 33/80/161 65/149/161 97/190/161
f 63/144/162 64/150/162 96/191/162 95/148/162
f 61/141/163 62/145/163 94/153/163 93/195/163
f 91/193/164 59/136/164 60/140/164 92/194/164
f 57/129/165 58/135/165 90/158/165 89/198/165
f 119/128/166 87/127/166 56/130/166 88/197/166
f 85/133/167 86/139/167 118/164/167 117/162/167
f 83/94/168 84/134/168 116/161/168 115/168/168
f 81/156/169 82/93/169 114/167/169 113/166/169
f 79/151/170 80/157/170 112/171/170 111/170/170
f 77/146/171 78/152/171 110/174/171 109/173/171
f 75/143/172 76/147/172 108/178/172 107/179/172
f 73/137/173 74/142/173 106/177/173 105/176/173
f 136/25/174 104/183/174 72/138/174 40/88/174
f 103/184/175 71/131/175 72/138/175 104/183/175
f 101/181/176 69/64/176 70/132/176 102/182/176
f 67/154/177 68/66/177 100/188/177 99/187/177
f 97/190/178 65/149/178 66/155/178 98/186/178
f 142/32/179 46/46/179 45/52/179 141/30/179
f 140/31/180 44/51/180 43/84/180 139/27/180
f 137/24/181 138/28/181 42/83/181 41/92/181
f 136/25/182 40/88/182 39/85/182 135/22/182
f 133/21/183 134/20/183 38/63/183 37/62/183
f 132/18/184 36/65/184 35/87/184 131/16/184
f 130/17/185 34/81/185 33/80/185 129/13/185
f 127/10/186 128/14/186 32/90/186 31/89/186
f 125/8/187 126/11/187 30/82/187 29/59/187
f 123/5/188 124/6/188 28/58/188 27/91/188
f 122/4/189 26/86/189 25/79/189 121/2/189
f 120/3/190 24/78/190 55/57/190 151/45/190
f 150/44/191 54/54/191 53/53/191 149/42/191
f 148/41/192 52/49/192 51/48/192 147/39/192
f 146/38/193 50/56/193 49/55/193 145/36/193
f 144/35/194 48/50/194 47/47/194 143/34/194
